<svg aria-hidden="true" style="position: absolute; width: 0; height: 0; overflow: hidden;" version="1.1" xmlns="http://www.w3.org/2000/svg" xmlns:xlink="http://www.w3.org/1999/xlink">
<defs>
<symbol id="icon-add" viewBox="0 0 32 32">
<path stroke-width="3.2" stroke-miterlimit="10" stroke-linecap="butt" stroke-linejoin="miter" d="M30.4 16c0-7.95-6.45-14.4-14.4-14.4s-14.4 6.45-14.4 14.4c0 7.95 6.45 14.4 14.4 14.4s14.4-6.45 14.4-14.4z"></path>
<path stroke-width="3.2" stroke-miterlimit="4" stroke-linecap="round" stroke-linejoin="round" d="M22 16h-12M16 10v0z"></path>
</symbol>
<symbol id="icon-arrow" viewBox="0 0 32 32">
<path fill="none" stroke-width="4.9231" stroke-miterlimit="4" stroke-linecap="round" stroke-linejoin="round" d="M3.538 14.961l12.462-12.461 12.462 12.461M16 4.231v25.269"></path>
</symbol>
<symbol id="icon-arrow-down" viewBox="0 0 31 32">
<path d="M30.968 16.148c0-8.551-6.933-15.484-15.484-15.484s-15.484 6.933-15.484 15.484c0 8.551 6.933 15.484 15.484 15.484s15.484-6.933 15.484-15.484zM23.472 14.012l-7.146 7.146c-0.223 0.223-0.526 0.349-0.842 0.349s-0.619-0.125-0.842-0.349l-7.146-7.146c-0.214-0.225-0.331-0.525-0.327-0.836s0.129-0.607 0.349-0.827c0.22-0.22 0.516-0.345 0.827-0.349s0.61 0.114 0.836 0.328l6.304 6.304 6.305-6.304c0.225-0.214 0.525-0.331 0.836-0.328s0.607 0.129 0.827 0.349 0.345 0.516 0.349 0.827c0.004 0.311-0.113 0.61-0.327 0.836z"></path>
</symbol>
<symbol id="icon-close" viewBox="0 0 32 32">
<path fill="none" stroke-width="2.9091" stroke-miterlimit="4" stroke-linecap="butt" stroke-linejoin="miter" d="M1.455 1.455l29.091 29.091M30.545 1.455l-29.091 29.091"></path>
</symbol>
<symbol id="icon-nav" viewBox="0 0 32 32">
<path d="M30.667 17.306h-29.333c-0.736 0-1.333-0.597-1.333-1.333s0.597-1.333 1.333-1.333h29.333c0.736 0 1.333 0.597 1.333 1.333s-0.597 1.333-1.333 1.333z"></path>
<path d="M30.667 7.083h-29.333c-0.736 0-1.333-0.597-1.333-1.333s0.597-1.333 1.333-1.333h29.333c0.736 0 1.333 0.597 1.333 1.333s-0.597 1.333-1.333 1.333z"></path>
<path d="M30.667 27.528h-29.333c-0.736 0-1.333-0.597-1.333-1.333s0.597-1.333 1.333-1.333h29.333c0.736 0 1.333 0.597 1.333 1.333s-0.597 1.333-1.333 1.333z"></path>
</symbol>
<symbol id="icon-coob" viewBox="0 0 32 32">
<path fill="#fff" d="M30.223 7.449c0.046-0.025 0.085-0.061 0.112-0.104s0.041-0.092 0.041-0.142-0.014-0.099-0.041-0.142c-0.027-0.043-0.065-0.079-0.112-0.104l-11.749-6.338c-0.752-0.405-1.605-0.618-2.474-0.618s-1.722 0.213-2.474 0.618l-11.747 6.338c-0.046 0.025-0.085 0.061-0.112 0.104s-0.041 0.092-0.041 0.142c0 0.050 0.014 0.099 0.041 0.142s0.065 0.079 0.112 0.104l14.068 7.684c0.047 0.026 0.101 0.040 0.156 0.040s0.109-0.014 0.156-0.040l14.065-7.684zM0.462 9.393c-0.047-0.025-0.1-0.038-0.154-0.038s-0.107 0.013-0.154 0.039c-0.047 0.025-0.086 0.062-0.113 0.105s-0.041 0.093-0.040 0.143v12.42c0.001 0.598 0.171 1.186 0.493 1.705s0.784 0.95 1.341 1.251l12.474 6.944c0.047 0.025 0.1 0.038 0.154 0.038s0.107-0.013 0.154-0.038c0.047-0.025 0.086-0.061 0.113-0.104s0.041-0.093 0.041-0.143v-14.409c-0-0.050-0.014-0.099-0.041-0.143s-0.066-0.079-0.113-0.104l-14.154-7.666zM17.231 17.355v14.356c0 0.050 0.014 0.099 0.041 0.143s0.066 0.079 0.113 0.105 0.1 0.038 0.154 0.038c0.054 0 0.107-0.013 0.154-0.038l12.473-6.944c0.557-0.301 1.019-0.732 1.341-1.25s0.492-1.105 0.494-1.703v-12.42c-0-0.050-0.015-0.099-0.042-0.143s-0.066-0.079-0.113-0.104-0.1-0.038-0.154-0.038c-0.054 0-0.107 0.013-0.154 0.038l-14.154 7.714c-0.047 0.025-0.085 0.061-0.112 0.104s-0.041 0.092-0.041 0.142z"></path>
</symbol>
<symbol id="icon-edit" viewBox="0 0 32 32">
<path fill="#fff" d="M31.687 0.404c-0.112-0.123-0.249-0.223-0.401-0.292s-0.316-0.107-0.483-0.111-0.333 0.026-0.488 0.088c-0.155 0.062-0.296 0.155-0.414 0.273l-0.951 0.947c-0.115 0.115-0.18 0.272-0.18 0.435s0.065 0.32 0.18 0.435l0.872 0.871c0.057 0.057 0.125 0.103 0.2 0.134s0.155 0.047 0.236 0.047c0.081 0 0.161-0.016 0.236-0.047s0.143-0.077 0.2-0.134l0.928-0.923c0.469-0.468 0.513-1.232 0.065-1.722zM27.025 3.231l-13.886 13.862c-0.084 0.084-0.145 0.188-0.178 0.302l-0.642 1.913c-0.015 0.052-0.016 0.107-0.003 0.159s0.041 0.1 0.079 0.139c0.038 0.038 0.086 0.066 0.139 0.079s0.108 0.012 0.159-0.003l1.912-0.642c0.114-0.032 0.218-0.093 0.302-0.178l13.861-13.888c0.128-0.13 0.2-0.305 0.2-0.487s-0.072-0.357-0.2-0.487l-0.765-0.769c-0.13-0.129-0.306-0.202-0.489-0.202s-0.359 0.073-0.489 0.202z"></path>
<path fill="#fff" d="M26.025 11.204l-9.376 9.395c-0.362 0.363-0.808 0.633-1.298 0.785l-1.992 0.667c-0.473 0.134-0.973 0.139-1.448 0.015s-0.909-0.372-1.257-0.72c-0.347-0.347-0.596-0.781-0.72-1.257s-0.119-0.975 0.015-1.448l0.667-1.992c0.152-0.49 0.421-0.935 0.784-1.298l9.394-9.378c0.086-0.086 0.145-0.196 0.169-0.315s0.012-0.243-0.035-0.356c-0.046-0.112-0.125-0.209-0.227-0.276s-0.22-0.104-0.342-0.104h-16.053c-1.142 0-2.238 0.454-3.046 1.262s-1.262 1.904-1.262 3.046v18.462c0 1.143 0.454 2.238 1.262 3.046s1.903 1.262 3.046 1.262h18.461c1.142 0 2.238-0.454 3.046-1.262s1.262-1.903 1.262-3.046v-16.053c0-0.122-0.036-0.241-0.104-0.342s-0.164-0.18-0.276-0.227c-0.112-0.046-0.236-0.059-0.356-0.035s-0.229 0.082-0.315 0.169z"></path>
</symbol>
    <symbol id="icon-ok" viewBox="0 0 32 32">
<path fill="none" stroke="#76ba1f" stroke-width="1.9854" stroke-miterlimit="10" stroke-linecap="butt" stroke-linejoin="miter" d="M30.949 16c0-8.253-6.696-14.949-14.949-14.949s-14.949 6.696-14.949 14.949c0 8.253 6.696 14.949 14.949 14.949s14.949-6.696 14.949-14.949z"></path>
<path fill="none" stroke="#76ba1f" stroke-width="1.9854" stroke-miterlimit="4" stroke-linecap="round" stroke-linejoin="round" d="M23.474 9.771l-10.464 12.457-4.485-4.983"></path>
</symbol>
<symbol id="icon-grid" viewBox="0 0 32 32">
<path d="M14.857 17.143h-14.857v14.857h14.857v-14.857zM32 17.143h-14.857v14.857h14.857v-14.857zM14.857 0h-14.857v14.857h14.857v-14.857zM32 0h-14.857v14.857h14.857v-14.857z"></path>
</symbol>
<symbol id="icon-heart" viewBox="0 0 37 32">
<path d="M18.286 31.626l-0.723-0.477c-3.438-2.271-7.787-4.838-11.009-8.61-3.395-3.975-5.024-8.056-4.982-12.48 0.051-4.94 4.055-8.957 8.926-8.957 3.866 0 6.437 2.226 7.788 3.832 1.352-1.607 3.922-3.832 7.788-3.832 4.871 0 8.875 4.017 8.926 8.955 0.045 4.426-1.584 8.505-4.982 12.48-3.221 3.775-7.571 6.342-11.009 8.613l-0.723 0.477z"></path>
</symbol>
<symbol id="icon-list" viewBox="0 0 47 32">
<path stroke-width="6.4" stroke-miterlimit="4" stroke-linecap="butt" stroke-linejoin="miter" d="M12.8 27.733h34.133M12.8 4.267v0zM12.8 16v0z"></path>
<path stroke-width="4.2667" stroke-miterlimit="4" stroke-linecap="square" stroke-linejoin="miter" d="M2.133 2.133h4.267v3.467h-4.267v-3.467zM2.133 14.267h4.267v3.467h-4.267v-3.467zM2.133 26.4h4.267v3.467h-4.267v-3.467z"></path>
</symbol>
<symbol id="icon-map" viewBox="0 0 32 32">
<path d="M0 6l10-4v24l-10 4z"></path>
<path d="M12 1l10 6v23l-10-5z"></path>
<path d="M24 7l8-6v24l-8 6z"></path>
</symbol>
    <symbol id="icon-map2" viewBox="0 0 32 32">
<path d="M21 6l-10-4-11 4v24l11-4 10 4 11-4v-24l-11 4zM12 4.554l8 3.2v19.692l-8-3.2v-19.692zM2 7.401l8-2.909v19.744l-8 2.909v-19.744zM30 24.599l-8 2.909v-19.744l8-2.909v19.744z"></path>
</symbol>
<symbol id="icon-minus" viewBox="0 0 32 32">
<path fill="#fff" d="M16 0c-8.822 0-16 7.178-16 16s7.178 16 16 16c8.822 0 16-7.178 16-16s-7.178-16-16-16zM23.385 17.231h-14.769v-2.462h14.769v2.462z"></path>
</symbol>
<symbol id="icon-phone" viewBox="0 0 32 32">
<path d="M25.641 32c-1.395 0-3.354-0.504-6.287-2.143-3.567-2-6.326-3.847-9.874-7.384-3.421-3.418-5.085-5.631-7.415-9.869-2.632-4.786-2.183-7.294-1.682-8.367 0.597-1.281 1.479-2.048 2.618-2.809 0.647-0.424 1.332-0.787 2.046-1.086 0.071-0.031 0.138-0.060 0.197-0.086 0.354-0.159 0.889-0.4 1.568-0.143 0.453 0.17 0.857 0.518 1.49 1.143 1.298 1.28 3.072 4.131 3.726 5.531 0.439 0.944 0.73 1.566 0.731 2.265 0 0.818-0.412 1.449-0.911 2.129-0.094 0.128-0.186 0.25-0.276 0.369-0.544 0.714-0.663 0.921-0.584 1.289 0.159 0.741 1.347 2.946 3.3 4.894s4.094 3.061 4.838 3.219c0.384 0.082 0.595-0.042 1.332-0.605 0.106-0.081 0.214-0.164 0.328-0.248 0.762-0.566 1.363-0.967 2.162-0.967h0.004c0.695 0 1.29 0.301 2.276 0.799 1.286 0.649 4.223 2.399 5.511 3.698 0.627 0.632 0.976 1.035 1.146 1.487 0.257 0.681 0.015 1.214-0.143 1.571-0.026 0.059-0.056 0.124-0.086 0.196-0.301 0.713-0.666 1.396-1.092 2.042-0.76 1.136-1.529 2.015-2.814 2.613-0.66 0.312-1.381 0.47-2.111 0.462z"></path>
</symbol>
<symbol id="icon-remove" viewBox="0 0 32 32">
<path fill="#fff" d="M16 1.556c-7.965 0-14.444 6.48-14.444 14.444s6.48 14.444 14.444 14.444c7.965 0 14.444-6.48 14.444-14.444s-6.48-14.444-14.444-14.444zM22.016 20.444l-1.572 1.572-4.444-4.444-4.444 4.444-1.572-1.572 4.444-4.444-4.444-4.444 1.572-1.572 4.444 4.444 4.444-4.444 1.572 1.572-4.444 4.444 4.444 4.444z"></path>
</symbol>
<symbol id="icon-share" viewBox="0 0 27 32">
<path d="M22.857 22.149c-0.616-0-1.225 0.134-1.791 0.395s-1.077 0.642-1.503 1.122l-10.57-6.409c0.205-0.829 0.205-1.7 0-2.529l10.57-6.409c0.77 0.86 1.804 1.388 2.909 1.485s2.205-0.243 3.094-0.957c0.889-0.714 1.506-1.753 1.735-2.922s0.055-2.388-0.49-3.428c-0.545-1.040-1.423-1.831-2.47-2.224s-2.191-0.361-3.218 0.090c-1.027 0.451-1.866 1.29-2.359 2.36s-0.609 2.297-0.324 3.451l-10.57 6.409c-0.631-0.709-1.445-1.199-2.337-1.406s-1.821-0.121-2.667 0.245c-0.846 0.367-1.571 0.998-2.082 1.812s-0.784 1.775-0.784 2.758c0 0.983 0.273 1.943 0.784 2.758s1.236 1.445 2.082 1.812 1.775 0.452 2.667 0.245c0.892-0.207 1.706-0.697 2.337-1.406l10.57 6.409c-0.245 0.994-0.195 2.046 0.143 3.008s0.947 1.786 1.742 2.356c0.794 0.57 1.735 0.858 2.689 0.823s1.874-0.391 2.631-1.018 1.312-1.494 1.589-2.479c0.276-0.985 0.26-2.038-0.048-3.012s-0.89-1.82-1.666-2.419c-0.776-0.599-1.707-0.921-2.662-0.921z"></path>
</symbol>
<symbol id="icon-user" viewBox="0 0 32 32">
<path fill="#76ba1f" style="fill: var(--color3, #76ba1f)" d="M21.389 2.541c-1.368-1.477-3.279-2.291-5.389-2.291-2.121 0-4.038 0.809-5.4 2.277-1.377 1.484-2.047 3.502-1.89 5.68 0.312 4.297 3.582 7.793 7.29 7.793s6.972-3.495 7.289-7.792c0.16-2.159-0.515-4.172-1.901-5.667zM28.375 31.75h-24.75c-0.324 0.004-0.645-0.064-0.939-0.199s-0.555-0.335-0.762-0.583c-0.457-0.546-0.641-1.292-0.505-2.047 0.593-3.292 2.445-6.057 5.356-7.999 2.586-1.723 5.862-2.672 9.225-2.672s6.639 0.949 9.225 2.672c2.911 1.941 4.763 4.706 5.356 7.998 0.136 0.754-0.048 1.5-0.505 2.047-0.208 0.249-0.468 0.448-0.762 0.584s-0.615 0.204-0.939 0.2z"></path>
</symbol>
</defs>
</svg>
