<svg width="170" height="69" viewBox="0 0 170 69" fill="none" xmlns="http://www.w3.org/2000/svg">
<path d="M4.995 64C4.855 64 4.729 63.951 4.617 63.853C4.519 63.741 4.47 63.615 4.47 63.475V49.825C4.47 49.671 4.519 49.545 4.617 49.447C4.729 49.349 4.855 49.3 4.995 49.3H10.875C12.667 49.3 14.074 49.713 15.096 50.539C16.132 51.365 16.65 52.569 16.65 54.151C16.65 55.719 16.139 56.902 15.117 57.7C14.095 58.484 12.681 58.876 10.875 58.876H8.376V63.475C8.376 63.629 8.32 63.755 8.208 63.853C8.11 63.951 7.984 64 7.83 64H4.995ZM10.77 55.978C11.386 55.978 11.869 55.824 12.219 55.516C12.569 55.194 12.744 54.725 12.744 54.109C12.744 53.535 12.576 53.08 12.24 52.744C11.918 52.394 11.428 52.219 10.77 52.219H8.313V55.978H10.77ZM23.5964 64.21C21.8604 64.21 20.5234 63.797 19.5854 62.971C18.6474 62.145 18.1364 60.983 18.0524 59.485C18.0384 59.303 18.0314 58.988 18.0314 58.54C18.0314 58.092 18.0384 57.777 18.0524 57.595C18.1364 56.111 18.6614 54.956 19.6274 54.13C20.5934 53.29 21.9164 52.87 23.5964 52.87C25.2904 52.87 26.6204 53.29 27.5864 54.13C28.5524 54.956 29.0774 56.111 29.1614 57.595C29.1754 57.777 29.1824 58.092 29.1824 58.54C29.1824 58.988 29.1754 59.303 29.1614 59.485C29.0774 60.983 28.5664 62.145 27.6284 62.971C26.6904 63.797 25.3464 64.21 23.5964 64.21ZM23.5964 61.648C24.2124 61.648 24.6674 61.466 24.9614 61.102C25.2554 60.724 25.4234 60.15 25.4654 59.38C25.4794 59.24 25.4864 58.96 25.4864 58.54C25.4864 58.12 25.4794 57.84 25.4654 57.7C25.4234 56.944 25.2484 56.377 24.9404 55.999C24.6464 55.621 24.1984 55.432 23.5964 55.432C22.4344 55.432 21.8184 56.188 21.7484 57.7L21.7274 58.54L21.7484 59.38C21.7764 60.15 21.9374 60.724 22.2314 61.102C22.5394 61.466 22.9944 61.648 23.5964 61.648ZM36.2873 64.21C34.7053 64.21 33.4243 63.79 32.4443 62.95C31.4643 62.096 30.9393 60.913 30.8693 59.401L30.8483 58.561L30.8693 57.7C30.9253 56.188 31.4433 55.005 32.4233 54.151C33.4173 53.297 34.7053 52.87 36.2873 52.87C37.4773 52.87 38.4783 53.087 39.2903 53.521C40.1163 53.941 40.7253 54.452 41.1173 55.054C41.5233 55.642 41.7403 56.181 41.7683 56.671C41.7823 56.811 41.7333 56.937 41.6213 57.049C41.5233 57.147 41.3973 57.196 41.2433 57.196H38.5763C38.4223 57.196 38.3033 57.161 38.2193 57.091C38.1353 57.021 38.0583 56.916 37.9883 56.776C37.8203 56.342 37.6033 56.034 37.3373 55.852C37.0853 55.67 36.7563 55.579 36.3503 55.579C35.2023 55.579 34.6073 56.321 34.5653 57.805L34.5443 58.603L34.5653 59.296C34.5933 60.052 34.7543 60.612 35.0483 60.976C35.3563 61.326 35.7903 61.501 36.3503 61.501C36.7843 61.501 37.1273 61.41 37.3793 61.228C37.6313 61.046 37.8343 60.738 37.9883 60.304C38.0583 60.164 38.1353 60.059 38.2193 59.989C38.3033 59.919 38.4223 59.884 38.5763 59.884H41.2433C41.3833 59.884 41.5023 59.933 41.6003 60.031C41.7123 60.115 41.7683 60.227 41.7683 60.367C41.7683 60.815 41.5723 61.34 41.1803 61.942C40.8023 62.544 40.2003 63.076 39.3743 63.538C38.5483 63.986 37.5193 64.21 36.2873 64.21ZM46.952 64C46.812 64 46.686 63.951 46.574 63.853C46.476 63.741 46.427 63.615 46.427 63.475V55.831H43.235C43.095 55.831 42.969 55.782 42.857 55.684C42.759 55.572 42.71 55.446 42.71 55.306V53.605C42.71 53.451 42.759 53.325 42.857 53.227C42.969 53.129 43.095 53.08 43.235 53.08H53.105C53.259 53.08 53.385 53.129 53.483 53.227C53.581 53.325 53.63 53.451 53.63 53.605V55.306C53.63 55.446 53.581 55.572 53.483 55.684C53.385 55.782 53.259 55.831 53.105 55.831H49.913V63.475C49.913 63.615 49.864 63.741 49.766 63.853C49.668 63.951 49.542 64 49.388 64H46.952ZM60.3259 64.21C58.5899 64.21 57.2529 63.797 56.3149 62.971C55.3769 62.145 54.8659 60.983 54.7819 59.485C54.7679 59.303 54.7609 58.988 54.7609 58.54C54.7609 58.092 54.7679 57.777 54.7819 57.595C54.8659 56.111 55.3909 54.956 56.3569 54.13C57.3229 53.29 58.6459 52.87 60.3259 52.87C62.0199 52.87 63.3499 53.29 64.3159 54.13C65.2819 54.956 65.8069 56.111 65.8909 57.595C65.9049 57.777 65.9119 58.092 65.9119 58.54C65.9119 58.988 65.9049 59.303 65.8909 59.485C65.8069 60.983 65.2959 62.145 64.3579 62.971C63.4199 63.797 62.0759 64.21 60.3259 64.21ZM60.3259 61.648C60.9419 61.648 61.3969 61.466 61.6909 61.102C61.9849 60.724 62.1529 60.15 62.1949 59.38C62.2089 59.24 62.2159 58.96 62.2159 58.54C62.2159 58.12 62.2089 57.84 62.1949 57.7C62.1529 56.944 61.9779 56.377 61.6699 55.999C61.3759 55.621 60.9279 55.432 60.3259 55.432C59.1639 55.432 58.5479 56.188 58.4779 57.7L58.4569 58.54L58.4779 59.38C58.5059 60.15 58.6669 60.724 58.9609 61.102C59.2689 61.466 59.7239 61.648 60.3259 61.648ZM79.0018 63.307C79.0578 63.363 79.0858 63.454 79.0858 63.58C79.0858 63.692 79.0438 63.79 78.9598 63.874C78.8758 63.958 78.7638 64 78.6238 64H75.6628C75.4108 64 75.2078 63.888 75.0538 63.664L72.5968 59.842H71.4838V63.475C71.4838 63.629 71.4278 63.755 71.3158 63.853C71.2178 63.951 71.0918 64 70.9378 64H68.5228C68.3688 64 68.2428 63.951 68.1448 63.853C68.0468 63.755 67.9978 63.629 67.9978 63.475V53.605C67.9978 53.451 68.0468 53.325 68.1448 53.227C68.2428 53.129 68.3688 53.08 68.5228 53.08H70.9378C71.0918 53.08 71.2178 53.129 71.3158 53.227C71.4278 53.325 71.4838 53.451 71.4838 53.605V57.091H72.6388L74.8858 53.416C75.0398 53.192 75.2358 53.08 75.4738 53.08H78.1618C78.2878 53.08 78.3928 53.122 78.4768 53.206C78.5748 53.29 78.6238 53.388 78.6238 53.5C78.6238 53.598 78.5888 53.696 78.5188 53.794L75.6628 58.372L79.0018 63.307Z" fill="#76BA1F"/>
<path d="M81.1531 64C81.0131 64 80.8871 63.951 80.7751 63.853C80.6771 63.741 80.6281 63.615 80.6281 63.475V60.808C80.6281 60.654 80.6771 60.528 80.7751 60.43C80.8871 60.332 81.0131 60.283 81.1531 60.283H83.8201C83.9741 60.283 84.1001 60.332 84.1981 60.43C84.2961 60.528 84.3451 60.654 84.3451 60.808V63.475C84.3451 63.615 84.2961 63.741 84.1981 63.853C84.1001 63.951 83.9741 64 83.8201 64H81.1531ZM87.3954 64C87.2554 64 87.1294 63.951 87.0174 63.853C86.9194 63.741 86.8704 63.615 86.8704 63.475V49.825C86.8704 49.671 86.9194 49.545 87.0174 49.447C87.1294 49.349 87.2554 49.3 87.3954 49.3H89.6634C89.9994 49.3 90.2444 49.454 90.3984 49.762L94.0944 56.377L97.7904 49.762C97.9444 49.454 98.1894 49.3 98.5254 49.3H100.772C100.926 49.3 101.052 49.349 101.15 49.447C101.262 49.545 101.318 49.671 101.318 49.825V63.475C101.318 63.629 101.262 63.755 101.15 63.853C101.052 63.951 100.926 64 100.772 64H98.2734C98.1194 64 97.9864 63.951 97.8744 63.853C97.7764 63.755 97.7274 63.629 97.7274 63.475V55.6L95.3754 59.989C95.1934 60.311 94.9484 60.472 94.6404 60.472H93.5484C93.3664 60.472 93.2194 60.43 93.1074 60.346C92.9954 60.262 92.8974 60.143 92.8134 59.989L90.4404 55.6V63.475C90.4404 63.615 90.3914 63.741 90.2934 63.853C90.1954 63.951 90.0694 64 89.9154 64H87.3954ZM107.306 64.21C106.564 64.21 105.885 64.07 105.269 63.79C104.667 63.496 104.191 63.104 103.841 62.614C103.505 62.11 103.337 61.557 103.337 60.955C103.337 59.989 103.729 59.212 104.513 58.624C105.311 58.036 106.403 57.63 107.789 57.406L110.414 57.007V56.713C110.414 56.181 110.302 55.789 110.078 55.537C109.854 55.285 109.476 55.159 108.944 55.159C108.622 55.159 108.356 55.215 108.146 55.327C107.936 55.439 107.719 55.593 107.495 55.789C107.299 55.957 107.152 56.069 107.054 56.125C107.012 56.237 106.935 56.293 106.823 56.293H104.534C104.394 56.293 104.275 56.251 104.177 56.167C104.093 56.069 104.058 55.957 104.072 55.831C104.086 55.453 104.268 55.033 104.618 54.571C104.982 54.109 105.528 53.71 106.256 53.374C106.998 53.038 107.908 52.87 108.986 52.87C110.708 52.87 111.982 53.255 112.808 54.025C113.634 54.781 114.047 55.803 114.047 57.091V63.475C114.047 63.615 113.998 63.741 113.9 63.853C113.802 63.951 113.676 64 113.522 64H111.086C110.946 64 110.82 63.951 110.708 63.853C110.61 63.741 110.561 63.615 110.561 63.475V62.74C110.253 63.174 109.819 63.531 109.259 63.811C108.713 64.077 108.062 64.21 107.306 64.21ZM108.293 61.816C108.937 61.816 109.455 61.606 109.847 61.186C110.253 60.766 110.456 60.15 110.456 59.338V59.044L108.671 59.359C107.411 59.583 106.781 60.024 106.781 60.682C106.781 61.032 106.928 61.312 107.222 61.522C107.516 61.718 107.873 61.816 108.293 61.816ZM116.942 67.99C116.802 67.99 116.676 67.941 116.564 67.843C116.466 67.745 116.417 67.619 116.417 67.465V53.605C116.417 53.451 116.466 53.325 116.564 53.227C116.676 53.129 116.802 53.08 116.942 53.08H119.315C119.469 53.08 119.595 53.129 119.693 53.227C119.791 53.325 119.84 53.451 119.84 53.605V54.361C120.596 53.367 121.681 52.87 123.095 52.87C124.467 52.87 125.538 53.297 126.308 54.151C127.078 55.005 127.498 56.209 127.568 57.763C127.582 57.945 127.589 58.204 127.589 58.54C127.589 58.876 127.582 59.135 127.568 59.317C127.512 60.829 127.092 62.026 126.308 62.908C125.524 63.776 124.453 64.21 123.095 64.21C121.723 64.21 120.701 63.741 120.029 62.803V67.465C120.029 67.619 119.98 67.745 119.882 67.843C119.784 67.941 119.658 67.99 119.504 67.99H116.942ZM121.961 61.396C122.619 61.396 123.088 61.2 123.368 60.808C123.662 60.416 123.83 59.877 123.872 59.191C123.9 58.911 123.914 58.694 123.914 58.54C123.914 58.386 123.9 58.169 123.872 57.889C123.83 57.203 123.662 56.664 123.368 56.272C123.088 55.88 122.619 55.684 121.961 55.684C121.317 55.684 120.841 55.887 120.533 56.293C120.239 56.685 120.071 57.196 120.029 57.826L120.008 58.603L120.029 59.401C120.057 59.975 120.232 60.451 120.554 60.829C120.876 61.207 121.345 61.396 121.961 61.396ZM140.669 63.307C140.725 63.363 140.753 63.454 140.753 63.58C140.753 63.692 140.711 63.79 140.627 63.874C140.543 63.958 140.431 64 140.291 64H137.33C137.078 64 136.875 63.888 136.721 63.664L134.264 59.842H133.151V63.475C133.151 63.629 133.095 63.755 132.983 63.853C132.885 63.951 132.759 64 132.605 64H130.19C130.036 64 129.91 63.951 129.812 63.853C129.714 63.755 129.665 63.629 129.665 63.475V53.605C129.665 53.451 129.714 53.325 129.812 53.227C129.91 53.129 130.036 53.08 130.19 53.08H132.605C132.759 53.08 132.885 53.129 132.983 53.227C133.095 53.325 133.151 53.451 133.151 53.605V57.091H134.306L136.553 53.416C136.707 53.192 136.903 53.08 137.141 53.08H139.829C139.955 53.08 140.06 53.122 140.144 53.206C140.242 53.29 140.291 53.388 140.291 53.5C140.291 53.598 140.256 53.696 140.186 53.794L137.33 58.372L140.669 63.307ZM146.968 64.21C145.288 64.21 143.965 63.755 142.999 62.845C142.033 61.935 141.529 60.612 141.487 58.876V58.141C141.543 56.489 142.054 55.201 143.02 54.277C144 53.339 145.309 52.87 146.947 52.87C148.137 52.87 149.138 53.115 149.95 53.605C150.776 54.081 151.392 54.739 151.798 55.579C152.218 56.419 152.428 57.385 152.428 58.477V58.981C152.428 59.121 152.379 59.247 152.281 59.359C152.183 59.457 152.057 59.506 151.903 59.506H145.183V59.653C145.211 60.311 145.372 60.843 145.666 61.249C145.96 61.655 146.387 61.858 146.947 61.858C147.297 61.858 147.584 61.788 147.808 61.648C148.032 61.494 148.235 61.312 148.417 61.102C148.543 60.948 148.641 60.857 148.711 60.829C148.795 60.787 148.921 60.766 149.089 60.766H151.693C151.819 60.766 151.924 60.808 152.008 60.892C152.106 60.962 152.155 61.06 152.155 61.186C152.155 61.55 151.945 61.97 151.525 62.446C151.119 62.922 150.524 63.335 149.74 63.685C148.956 64.035 148.032 64.21 146.968 64.21ZM148.732 57.427V57.385C148.732 56.699 148.571 56.16 148.249 55.768C147.941 55.362 147.507 55.159 146.947 55.159C146.401 55.159 145.967 55.362 145.645 55.768C145.337 56.16 145.183 56.699 145.183 57.385V57.427H148.732ZM157.694 64C157.554 64 157.428 63.951 157.316 63.853C157.218 63.741 157.169 63.615 157.169 63.475V55.831H153.977C153.837 55.831 153.711 55.782 153.599 55.684C153.501 55.572 153.452 55.446 153.452 55.306V53.605C153.452 53.451 153.501 53.325 153.599 53.227C153.711 53.129 153.837 53.08 153.977 53.08H163.847C164.001 53.08 164.127 53.129 164.225 53.227C164.323 53.325 164.372 53.451 164.372 53.605V55.306C164.372 55.446 164.323 55.572 164.225 55.684C164.127 55.782 164.001 55.831 163.847 55.831H160.655V63.475C160.655 63.615 160.606 63.741 160.508 63.853C160.41 63.951 160.284 64 160.13 64H157.694Z" fill="black"/>
<g filter="url(#filter0_d)">
<path d="M4 19C4 9.61116 11.6112 2 21 2H149C158.389 2 166 9.61116 166 19V20C166 29.3888 158.389 37 149 37H21C11.6112 37 4 29.3888 4 20V19Z" fill="white"/>
</g>
<path d="M14.39 23.1C13.4967 23.1 12.8167 22.86 12.35 22.38C11.89 21.9 11.6433 21.2367 11.61 20.39C11.6033 20.21 11.6 19.9167 11.6 19.51C11.6 19.0967 11.6033 18.7967 11.61 18.61C11.6433 17.77 11.8933 17.11 12.36 16.63C12.8267 16.1433 13.5033 15.9 14.39 15.9C14.9833 15.9 15.4867 16.0067 15.9 16.22C16.3133 16.4267 16.6267 16.7 16.84 17.04C17.0533 17.38 17.17 17.7433 17.19 18.13V18.15C17.19 18.2033 17.1667 18.25 17.12 18.29C17.08 18.3233 17.0333 18.34 16.98 18.34H16.43C16.2967 18.34 16.2133 18.2633 16.18 18.11C16.0667 17.61 15.8633 17.26 15.57 17.06C15.2767 16.8533 14.8833 16.75 14.39 16.75C13.2433 16.75 12.65 17.3867 12.61 18.66C12.6033 18.84 12.6 19.1167 12.6 19.49C12.6 19.8633 12.6033 20.1467 12.61 20.34C12.65 21.6133 13.2433 22.25 14.39 22.25C14.8833 22.25 15.2767 22.15 15.57 21.95C15.87 21.7433 16.0733 21.39 16.18 20.89C16.2 20.8033 16.23 20.7433 16.27 20.71C16.31 20.6767 16.3633 20.66 16.43 20.66H16.98C17.04 20.66 17.09 20.68 17.13 20.72C17.1767 20.7533 17.1967 20.8 17.19 20.86C17.17 21.2533 17.0533 21.62 16.84 21.96C16.6267 22.3 16.3133 22.5767 15.9 22.79C15.4867 22.9967 14.9833 23.1 14.39 23.1ZM19.8502 23.1C19.5235 23.1 19.2202 23.0333 18.9402 22.9C18.6602 22.7667 18.4368 22.5867 18.2702 22.36C18.1102 22.1267 18.0302 21.87 18.0302 21.59C18.0302 21.15 18.2102 20.79 18.5702 20.51C18.9368 20.2233 19.4302 20.0367 20.0502 19.95L21.5402 19.74V19.45C21.5402 18.77 21.1502 18.43 20.3702 18.43C20.0768 18.43 19.8368 18.4933 19.6502 18.62C19.4635 18.74 19.3235 18.8833 19.2302 19.05C19.2102 19.11 19.1835 19.1533 19.1502 19.18C19.1235 19.2067 19.0835 19.22 19.0302 19.22H18.6002C18.5402 19.22 18.4868 19.2 18.4402 19.16C18.4002 19.1133 18.3802 19.06 18.3802 19C18.3868 18.84 18.4602 18.66 18.6002 18.46C18.7468 18.2533 18.9702 18.0767 19.2702 17.93C19.5702 17.7767 19.9402 17.7 20.3802 17.7C21.1268 17.7 21.6635 17.8767 21.9902 18.23C22.3168 18.5767 22.4802 19.01 22.4802 19.53V22.77C22.4802 22.8367 22.4568 22.8933 22.4102 22.94C22.3702 22.98 22.3168 23 22.2502 23H21.7902C21.7235 23 21.6668 22.98 21.6202 22.94C21.5802 22.8933 21.5602 22.8367 21.5602 22.77V22.34C21.4135 22.5533 21.2002 22.7333 20.9202 22.88C20.6402 23.0267 20.2835 23.1 19.8502 23.1ZM20.0602 22.35C20.4935 22.35 20.8468 22.21 21.1202 21.93C21.4002 21.6433 21.5402 21.2333 21.5402 20.7V20.42L20.3802 20.59C19.9068 20.6567 19.5502 20.77 19.3102 20.93C19.0702 21.0833 18.9502 21.28 18.9502 21.52C18.9502 21.7867 19.0602 21.9933 19.2802 22.14C19.5002 22.28 19.7602 22.35 20.0602 22.35ZM29.0377 17.8C29.0911 17.8 29.1377 17.82 29.1777 17.86C29.2177 17.8933 29.2377 17.9367 29.2377 17.99V22.78C29.2377 22.8467 29.2177 22.9 29.1777 22.94C29.1377 22.98 29.0877 23 29.0277 23H28.5377C28.4711 23 28.4177 22.98 28.3777 22.94C28.3377 22.9 28.3177 22.8467 28.3177 22.78V19.49L27.0377 21.91C26.9911 21.9967 26.9444 22.0633 26.8977 22.11C26.8577 22.15 26.7944 22.17 26.7077 22.17H26.4477C26.3677 22.17 26.3044 22.15 26.2577 22.11C26.2177 22.07 26.1711 22.0033 26.1177 21.91L24.8477 19.55V22.78C24.8477 22.8467 24.8277 22.9 24.7877 22.94C24.7477 22.98 24.6944 23 24.6277 23H24.1377C24.0711 23 24.0177 22.98 23.9777 22.94C23.9377 22.9 23.9177 22.8467 23.9177 22.78V17.99C23.9177 17.9433 23.9377 17.9 23.9777 17.86C24.0177 17.82 24.0644 17.8 24.1177 17.8H24.6277C24.7277 17.8 24.8111 17.8533 24.8777 17.96L26.5777 21.14L28.2877 17.96C28.3411 17.8533 28.4244 17.8 28.5377 17.8H29.0377ZM32.8641 23.1C32.1308 23.1 31.5608 22.8933 31.1541 22.48C30.7541 22.0667 30.5408 21.5167 30.5141 20.83L30.5041 20.4L30.5141 19.97C30.5408 19.29 30.7575 18.7433 31.1641 18.33C31.5708 17.91 32.1375 17.7 32.8641 17.7C33.5908 17.7 34.1575 17.91 34.5641 18.33C34.9708 18.7433 35.1875 19.29 35.2141 19.97C35.2208 20.0433 35.2241 20.1867 35.2241 20.4C35.2241 20.6133 35.2208 20.7567 35.2141 20.83C35.1875 21.5167 34.9708 22.0667 34.5641 22.48C34.1641 22.8933 33.5975 23.1 32.8641 23.1ZM32.8641 22.33C33.2841 22.33 33.6141 22.1967 33.8541 21.93C34.1008 21.6633 34.2341 21.28 34.2541 20.78C34.2608 20.7133 34.2641 20.5867 34.2641 20.4C34.2641 20.2133 34.2608 20.0867 34.2541 20.02C34.2341 19.52 34.1008 19.1367 33.8541 18.87C33.6141 18.6033 33.2841 18.47 32.8641 18.47C32.4441 18.47 32.1108 18.6033 31.8641 18.87C31.6175 19.1367 31.4875 19.52 31.4741 20.02L31.4641 20.4L31.4741 20.78C31.4875 21.28 31.6175 21.6633 31.8641 21.93C32.1108 22.1967 32.4441 22.33 32.8641 22.33ZM38.5563 23.1C37.8697 23.1 37.3197 22.89 36.9063 22.47C36.4997 22.0433 36.2763 21.4633 36.2363 20.73L36.2263 20.39L36.2363 20.06C36.283 19.34 36.5097 18.7667 36.9163 18.34C37.3297 17.9133 37.873 17.7 38.5463 17.7C39.2863 17.7 39.8597 17.9367 40.2663 18.41C40.673 18.8767 40.8763 19.51 40.8763 20.31V20.48C40.8763 20.5467 40.853 20.6033 40.8063 20.65C40.7663 20.69 40.713 20.71 40.6463 20.71H37.1863V20.8C37.2063 21.2333 37.3363 21.6033 37.5763 21.91C37.823 22.21 38.1463 22.36 38.5463 22.36C38.853 22.36 39.103 22.3 39.2963 22.18C39.4963 22.0533 39.643 21.9233 39.7363 21.79C39.7963 21.71 39.8397 21.6633 39.8663 21.65C39.8997 21.63 39.9563 21.62 40.0363 21.62H40.5263C40.5863 21.62 40.6363 21.6367 40.6763 21.67C40.7163 21.7033 40.7363 21.75 40.7363 21.81C40.7363 21.9567 40.643 22.1333 40.4563 22.34C40.2763 22.5467 40.0197 22.7267 39.6863 22.88C39.3597 23.0267 38.983 23.1 38.5563 23.1ZM39.9263 20.02V19.99C39.9263 19.53 39.7997 19.1567 39.5463 18.87C39.2997 18.5767 38.9663 18.43 38.5463 18.43C38.1263 18.43 37.793 18.5767 37.5463 18.87C37.3063 19.1567 37.1863 19.53 37.1863 19.99V20.02H39.9263ZM44.2832 23C44.2299 23 44.1799 22.98 44.1332 22.94C44.0932 22.9 44.0732 22.85 44.0732 22.79C44.0732 22.73 44.0965 22.67 44.1432 22.61L45.8832 20.34L44.2532 18.19C44.2065 18.1367 44.1832 18.0767 44.1832 18.01C44.1832 17.95 44.2032 17.9 44.2432 17.86C44.2832 17.82 44.3332 17.8 44.3932 17.8H44.9032C45.0032 17.8 45.0899 17.8533 45.1632 17.96L46.4932 19.69L47.8232 17.97C47.8632 17.9167 47.8999 17.8767 47.9332 17.85C47.9732 17.8167 48.0232 17.8 48.0832 17.8H48.5732C48.6332 17.8 48.6832 17.82 48.7232 17.86C48.7632 17.9 48.7832 17.95 48.7832 18.01C48.7832 18.0767 48.7599 18.1367 48.7132 18.19L47.0632 20.36L48.8032 22.61C48.8499 22.67 48.8732 22.73 48.8732 22.79C48.8732 22.85 48.8532 22.9 48.8132 22.94C48.7732 22.98 48.7232 23 48.6632 23H48.1332C48.0332 23 47.9465 22.95 47.8732 22.85L46.4732 21.02L45.0532 22.85C45.0132 22.8967 44.9732 22.9333 44.9332 22.96C44.8999 22.9867 44.8532 23 44.7932 23H44.2832ZM52.0438 23.1C51.3105 23.1 50.7405 22.8933 50.3338 22.48C49.9338 22.0667 49.7205 21.5167 49.6938 20.83L49.6838 20.4L49.6938 19.97C49.7205 19.29 49.9372 18.7433 50.3438 18.33C50.7505 17.91 51.3172 17.7 52.0438 17.7C52.7705 17.7 53.3372 17.91 53.7438 18.33C54.1505 18.7433 54.3672 19.29 54.3938 19.97C54.4005 20.0433 54.4038 20.1867 54.4038 20.4C54.4038 20.6133 54.4005 20.7567 54.3938 20.83C54.3672 21.5167 54.1505 22.0667 53.7438 22.48C53.3438 22.8933 52.7772 23.1 52.0438 23.1ZM52.0438 22.33C52.4638 22.33 52.7938 22.1967 53.0338 21.93C53.2805 21.6633 53.4138 21.28 53.4338 20.78C53.4405 20.7133 53.4438 20.5867 53.4438 20.4C53.4438 20.2133 53.4405 20.0867 53.4338 20.02C53.4138 19.52 53.2805 19.1367 53.0338 18.87C52.7938 18.6033 52.4638 18.47 52.0438 18.47C51.6238 18.47 51.2905 18.6033 51.0438 18.87C50.7972 19.1367 50.6672 19.52 50.6538 20.02L50.6438 20.4L50.6538 20.78C50.6672 21.28 50.7972 21.6633 51.0438 21.93C51.2905 22.1967 51.6238 22.33 52.0438 22.33ZM55.896 24.9C55.8293 24.9 55.7727 24.8767 55.726 24.83C55.686 24.79 55.666 24.7367 55.666 24.67V18.03C55.666 17.9633 55.686 17.91 55.726 17.87C55.7727 17.8233 55.8293 17.8 55.896 17.8H56.356C56.4227 17.8 56.476 17.8233 56.516 17.87C56.5627 17.91 56.586 17.9633 56.586 18.03V18.47C56.9593 17.9567 57.506 17.7 58.226 17.7C58.926 17.7 59.4493 17.92 59.796 18.36C60.1493 18.8 60.3393 19.3667 60.366 20.06C60.3727 20.1333 60.376 20.2467 60.376 20.4C60.376 20.5533 60.3727 20.6667 60.366 20.74C60.3393 21.4267 60.1493 21.9933 59.796 22.44C59.4427 22.88 58.9193 23.1 58.226 23.1C57.5327 23.1 56.9927 22.85 56.606 22.35V24.67C56.606 24.7367 56.586 24.79 56.546 24.83C56.506 24.8767 56.4527 24.9 56.386 24.9H55.896ZM58.016 22.29C58.4893 22.29 58.8327 22.1433 59.046 21.85C59.266 21.5567 59.386 21.17 59.406 20.69C59.4127 20.6233 59.416 20.5267 59.416 20.4C59.416 19.14 58.9493 18.51 58.016 18.51C57.556 18.51 57.2093 18.6633 56.976 18.97C56.7493 19.27 56.626 19.63 56.606 20.05L56.596 20.43L56.606 20.82C56.6193 21.2133 56.746 21.5567 56.986 21.85C57.226 22.1433 57.5693 22.29 58.016 22.29ZM63.743 23.1C63.0097 23.1 62.4397 22.8933 62.033 22.48C61.633 22.0667 61.4197 21.5167 61.393 20.83L61.383 20.4L61.393 19.97C61.4197 19.29 61.6364 18.7433 62.043 18.33C62.4497 17.91 63.0164 17.7 63.743 17.7C64.4697 17.7 65.0364 17.91 65.443 18.33C65.8497 18.7433 66.0664 19.29 66.093 19.97C66.0997 20.0433 66.103 20.1867 66.103 20.4C66.103 20.6133 66.0997 20.7567 66.093 20.83C66.0664 21.5167 65.8497 22.0667 65.443 22.48C65.043 22.8933 64.4764 23.1 63.743 23.1ZM63.743 22.33C64.163 22.33 64.493 22.1967 64.733 21.93C64.9797 21.6633 65.113 21.28 65.133 20.78C65.1397 20.7133 65.143 20.5867 65.143 20.4C65.143 20.2133 65.1397 20.0867 65.133 20.02C65.113 19.52 64.9797 19.1367 64.733 18.87C64.493 18.6033 64.163 18.47 63.743 18.47C63.323 18.47 62.9897 18.6033 62.743 18.87C62.4964 19.1367 62.3664 19.52 62.353 20.02L62.343 20.4L62.353 20.78C62.3664 21.28 62.4964 21.6633 62.743 21.93C62.9897 22.1967 63.323 22.33 63.743 22.33ZM67.5852 23C67.5186 23 67.4619 22.98 67.4152 22.94C67.3752 22.8933 67.3552 22.8367 67.3552 22.77V18.03C67.3552 17.9633 67.3752 17.91 67.4152 17.87C67.4619 17.8233 67.5186 17.8 67.5852 17.8H68.0452C68.1119 17.8 68.1652 17.8233 68.2052 17.87C68.2519 17.91 68.2752 17.9633 68.2752 18.03V22.2H70.1052V18.03C70.1052 17.9633 70.1252 17.91 70.1652 17.87C70.2119 17.8233 70.2686 17.8 70.3352 17.8H70.7552C70.8219 17.8 70.8752 17.8233 70.9152 17.87C70.9619 17.91 70.9852 17.9633 70.9852 18.03V22.2H72.8152V18.03C72.8152 17.9633 72.8352 17.91 72.8752 17.87C72.9219 17.8233 72.9786 17.8 73.0452 17.8H73.5052C73.5719 17.8 73.6252 17.8233 73.6652 17.87C73.7119 17.91 73.7352 17.9633 73.7352 18.03V22.77C73.7352 22.8367 73.7119 22.8933 73.6652 22.94C73.6252 22.98 73.5719 23 73.5052 23H67.5852ZM77.3063 23.1C76.6197 23.1 76.0697 22.89 75.6563 22.47C75.2497 22.0433 75.0263 21.4633 74.9863 20.73L74.9763 20.39L74.9863 20.06C75.033 19.34 75.2597 18.7667 75.6663 18.34C76.0797 17.9133 76.623 17.7 77.2963 17.7C78.0363 17.7 78.6097 17.9367 79.0163 18.41C79.423 18.8767 79.6263 19.51 79.6263 20.31V20.48C79.6263 20.5467 79.603 20.6033 79.5563 20.65C79.5163 20.69 79.463 20.71 79.3963 20.71H75.9363V20.8C75.9563 21.2333 76.0863 21.6033 76.3263 21.91C76.573 22.21 76.8963 22.36 77.2963 22.36C77.603 22.36 77.853 22.3 78.0463 22.18C78.2463 22.0533 78.393 21.9233 78.4863 21.79C78.5463 21.71 78.5897 21.6633 78.6163 21.65C78.6497 21.63 78.7063 21.62 78.7863 21.62H79.2763C79.3363 21.62 79.3863 21.6367 79.4263 21.67C79.4663 21.7033 79.4863 21.75 79.4863 21.81C79.4863 21.9567 79.393 22.1333 79.2063 22.34C79.0263 22.5467 78.7697 22.7267 78.4363 22.88C78.1097 23.0267 77.733 23.1 77.3063 23.1ZM78.6763 20.02V19.99C78.6763 19.53 78.5497 19.1567 78.2963 18.87C78.0497 18.5767 77.7163 18.43 77.2963 18.43C76.8763 18.43 76.543 18.5767 76.2963 18.87C76.0563 19.1567 75.9363 19.53 75.9363 19.99V20.02H78.6763ZM82.902 23.1C82.2154 23.1 81.6654 22.89 81.252 22.47C80.8454 22.0433 80.622 21.4633 80.582 20.73L80.572 20.39L80.582 20.06C80.6287 19.34 80.8554 18.7667 81.262 18.34C81.6754 17.9133 82.2187 17.7 82.892 17.7C83.632 17.7 84.2054 17.9367 84.612 18.41C85.0187 18.8767 85.222 19.51 85.222 20.31V20.48C85.222 20.5467 85.1987 20.6033 85.152 20.65C85.112 20.69 85.0587 20.71 84.992 20.71H81.532V20.8C81.552 21.2333 81.682 21.6033 81.922 21.91C82.1687 22.21 82.492 22.36 82.892 22.36C83.1987 22.36 83.4487 22.3 83.642 22.18C83.842 22.0533 83.9887 21.9233 84.082 21.79C84.142 21.71 84.1854 21.6633 84.212 21.65C84.2454 21.63 84.302 21.62 84.382 21.62H84.872C84.932 21.62 84.982 21.6367 85.022 21.67C85.062 21.7033 85.082 21.75 85.082 21.81C85.082 21.9567 84.9887 22.1333 84.802 22.34C84.622 22.5467 84.3654 22.7267 84.032 22.88C83.7054 23.0267 83.3287 23.1 82.902 23.1ZM84.272 20.02V19.99C84.272 19.53 84.1454 19.1567 83.892 18.87C83.6454 18.5767 83.312 18.43 82.892 18.43C82.472 18.43 82.1387 18.5767 81.892 18.87C81.652 19.1567 81.532 19.53 81.532 19.99V20.02H84.272ZM86.3477 23.75C86.2944 23.75 86.2511 23.73 86.2177 23.69C86.1911 23.65 86.1811 23.6 86.1877 23.54L86.4177 22.11C86.4444 21.9167 86.5377 21.82 86.6977 21.82H87.3677C87.4144 21.82 87.4511 21.8367 87.4777 21.87C87.5111 21.9033 87.5277 21.9433 87.5277 21.99C87.5277 22.0233 87.5177 22.0767 87.4977 22.15L86.9677 23.52C86.9344 23.6 86.8977 23.6567 86.8577 23.69C86.8177 23.73 86.7577 23.75 86.6777 23.75H86.3477ZM91.5891 23C91.5225 23 91.4658 22.98 91.4191 22.94C91.3791 22.8933 91.3591 22.8367 91.3591 22.77V18.03C91.3591 17.9633 91.3791 17.91 91.4191 17.87C91.4658 17.8233 91.5225 17.8 91.5891 17.8H95.5591C95.6258 17.8 95.6791 17.8233 95.7191 17.87C95.7658 17.91 95.7891 17.9633 95.7891 18.03V22.77C95.7891 22.8367 95.7658 22.8933 95.7191 22.94C95.6791 22.98 95.6258 23 95.5591 23H95.0791C95.0125 23 94.9591 22.98 94.9191 22.94C94.8791 22.8933 94.8591 22.8367 94.8591 22.77V18.6H92.2991V22.77C92.2991 22.8367 92.2758 22.8933 92.2291 22.94C92.1891 22.98 92.1358 23 92.0691 23H91.5891ZM99.4071 23.1C98.6738 23.1 98.1038 22.8933 97.6971 22.48C97.2971 22.0667 97.0838 21.5167 97.0571 20.83L97.0471 20.4L97.0571 19.97C97.0838 19.29 97.3004 18.7433 97.7071 18.33C98.1138 17.91 98.6804 17.7 99.4071 17.7C100.134 17.7 100.7 17.91 101.107 18.33C101.514 18.7433 101.73 19.29 101.757 19.97C101.764 20.0433 101.767 20.1867 101.767 20.4C101.767 20.6133 101.764 20.7567 101.757 20.83C101.73 21.5167 101.514 22.0667 101.107 22.48C100.707 22.8933 100.14 23.1 99.4071 23.1ZM99.4071 22.33C99.8271 22.33 100.157 22.1967 100.397 21.93C100.644 21.6633 100.777 21.28 100.797 20.78C100.804 20.7133 100.807 20.5867 100.807 20.4C100.807 20.2133 100.804 20.0867 100.797 20.02C100.777 19.52 100.644 19.1367 100.397 18.87C100.157 18.6033 99.8271 18.47 99.4071 18.47C98.9871 18.47 98.6538 18.6033 98.4071 18.87C98.1604 19.1367 98.0304 19.52 98.0171 20.02L98.0071 20.4L98.0171 20.78C98.0304 21.28 98.1604 21.6633 98.4071 21.93C98.6538 22.1967 98.9871 22.33 99.4071 22.33ZM103.259 24.9C103.193 24.9 103.136 24.8767 103.089 24.83C103.049 24.79 103.029 24.7367 103.029 24.67V18.03C103.029 17.9633 103.049 17.91 103.089 17.87C103.136 17.8233 103.193 17.8 103.259 17.8H103.719C103.786 17.8 103.839 17.8233 103.879 17.87C103.926 17.91 103.949 17.9633 103.949 18.03V18.47C104.323 17.9567 104.869 17.7 105.589 17.7C106.289 17.7 106.813 17.92 107.159 18.36C107.513 18.8 107.703 19.3667 107.729 20.06C107.736 20.1333 107.739 20.2467 107.739 20.4C107.739 20.5533 107.736 20.6667 107.729 20.74C107.703 21.4267 107.513 21.9933 107.159 22.44C106.806 22.88 106.283 23.1 105.589 23.1C104.896 23.1 104.356 22.85 103.969 22.35V24.67C103.969 24.7367 103.949 24.79 103.909 24.83C103.869 24.8767 103.816 24.9 103.749 24.9H103.259ZM105.379 22.29C105.853 22.29 106.196 22.1433 106.409 21.85C106.629 21.5567 106.749 21.17 106.769 20.69C106.776 20.6233 106.779 20.5267 106.779 20.4C106.779 19.14 106.313 18.51 105.379 18.51C104.919 18.51 104.573 18.6633 104.339 18.97C104.113 19.27 103.989 19.63 103.969 20.05L103.959 20.43L103.969 20.82C103.983 21.2133 104.109 21.5567 104.349 21.85C104.589 22.1433 104.933 22.29 105.379 22.29ZM111.106 23.1C110.373 23.1 109.803 22.8933 109.396 22.48C108.996 22.0667 108.783 21.5167 108.756 20.83L108.746 20.4L108.756 19.97C108.783 19.29 109 18.7433 109.406 18.33C109.813 17.91 110.38 17.7 111.106 17.7C111.833 17.7 112.4 17.91 112.806 18.33C113.213 18.7433 113.43 19.29 113.456 19.97C113.463 20.0433 113.466 20.1867 113.466 20.4C113.466 20.6133 113.463 20.7567 113.456 20.83C113.43 21.5167 113.213 22.0667 112.806 22.48C112.406 22.8933 111.84 23.1 111.106 23.1ZM111.106 22.33C111.526 22.33 111.856 22.1967 112.096 21.93C112.343 21.6633 112.476 21.28 112.496 20.78C112.503 20.7133 112.506 20.5867 112.506 20.4C112.506 20.2133 112.503 20.0867 112.496 20.02C112.476 19.52 112.343 19.1367 112.096 18.87C111.856 18.6033 111.526 18.47 111.106 18.47C110.686 18.47 110.353 18.6033 110.106 18.87C109.86 19.1367 109.73 19.52 109.716 20.02L109.706 20.4L109.716 20.78C109.73 21.28 109.86 21.6633 110.106 21.93C110.353 22.1967 110.686 22.33 111.106 22.33ZM119.139 17.8C119.192 17.8 119.239 17.82 119.279 17.86C119.325 17.9 119.349 17.9467 119.349 18V22.77C119.349 22.8367 119.325 22.8933 119.279 22.94C119.239 22.98 119.185 23 119.119 23H118.649C118.582 23 118.525 22.98 118.479 22.94C118.439 22.8933 118.419 22.8367 118.419 22.77V19.14L115.649 22.85C115.575 22.95 115.489 23 115.389 23H114.939C114.879 23 114.825 22.98 114.779 22.94C114.739 22.8933 114.719 22.8433 114.719 22.79V18.03C114.719 17.9633 114.739 17.91 114.779 17.87C114.825 17.8233 114.882 17.8 114.949 17.8H115.429C115.495 17.8 115.549 17.8233 115.589 17.87C115.635 17.91 115.659 17.9633 115.659 18.03V21.64L118.419 17.95C118.492 17.85 118.579 17.8 118.679 17.8H119.139ZM117.059 17.11C116.525 17.11 116.142 16.9933 115.909 16.76C115.675 16.5267 115.559 16.2267 115.559 15.86C115.559 15.8067 115.575 15.7633 115.609 15.73C115.642 15.69 115.689 15.67 115.749 15.67H116.089C116.149 15.67 116.195 15.69 116.229 15.73C116.262 15.7633 116.279 15.8067 116.279 15.86C116.279 16.28 116.539 16.49 117.059 16.49C117.579 16.49 117.839 16.28 117.839 15.86C117.839 15.8067 117.855 15.7633 117.889 15.73C117.922 15.69 117.969 15.67 118.029 15.67H118.379C118.439 15.67 118.485 15.69 118.519 15.73C118.552 15.7633 118.569 15.8067 118.569 15.86C118.569 16.22 118.449 16.52 118.209 16.76C117.975 16.9933 117.592 17.11 117.059 17.11ZM120.742 23.75C120.689 23.75 120.646 23.73 120.612 23.69C120.586 23.65 120.576 23.6 120.582 23.54L120.812 22.11C120.839 21.9167 120.932 21.82 121.092 21.82H121.762C121.809 21.82 121.846 21.8367 121.872 21.87C121.906 21.9033 121.922 21.9433 121.922 21.99C121.922 22.0233 121.912 22.0767 121.892 22.15L121.362 23.52C121.329 23.6 121.292 23.6567 121.252 23.69C121.212 23.73 121.152 23.75 121.072 23.75H120.742ZM125.994 24.9C125.927 24.9 125.87 24.8767 125.824 24.83C125.784 24.79 125.764 24.7367 125.764 24.67V18.03C125.764 17.9633 125.784 17.91 125.824 17.87C125.87 17.8233 125.927 17.8 125.994 17.8H126.454C126.52 17.8 126.574 17.8233 126.614 17.87C126.66 17.91 126.684 17.9633 126.684 18.03V18.47C127.057 17.9567 127.604 17.7 128.324 17.7C129.024 17.7 129.547 17.92 129.894 18.36C130.247 18.8 130.437 19.3667 130.464 20.06C130.47 20.1333 130.474 20.2467 130.474 20.4C130.474 20.5533 130.47 20.6667 130.464 20.74C130.437 21.4267 130.247 21.9933 129.894 22.44C129.54 22.88 129.017 23.1 128.324 23.1C127.63 23.1 127.09 22.85 126.704 22.35V24.67C126.704 24.7367 126.684 24.79 126.644 24.83C126.604 24.8767 126.55 24.9 126.484 24.9H125.994ZM128.114 22.29C128.587 22.29 128.93 22.1433 129.144 21.85C129.364 21.5567 129.484 21.17 129.504 20.69C129.51 20.6233 129.514 20.5267 129.514 20.4C129.514 19.14 129.047 18.51 128.114 18.51C127.654 18.51 127.307 18.6633 127.074 18.97C126.847 19.27 126.724 19.63 126.704 20.05L126.694 20.43L126.704 20.82C126.717 21.2133 126.844 21.5567 127.084 21.85C127.324 22.1433 127.667 22.29 128.114 22.29ZM135.431 17.8C135.497 17.8 135.551 17.8233 135.591 17.87C135.637 17.91 135.661 17.9633 135.661 18.03V22.77C135.661 22.8367 135.637 22.8933 135.591 22.94C135.551 22.98 135.497 23 135.431 23H134.951C134.884 23 134.827 22.98 134.781 22.94C134.741 22.8933 134.721 22.8367 134.721 22.77V21.14H133.651L132.521 22.85C132.494 22.89 132.457 22.9267 132.411 22.96C132.364 22.9867 132.314 23 132.261 23H131.781C131.721 23 131.671 22.98 131.631 22.94C131.591 22.9 131.571 22.8533 131.571 22.8C131.571 22.7333 131.594 22.6733 131.641 22.62L132.761 20.97C132.414 20.85 132.154 20.66 131.981 20.4C131.807 20.1333 131.721 19.8133 131.721 19.44C131.721 18.88 131.884 18.4667 132.211 18.2C132.544 17.9333 133.044 17.8 133.711 17.8H135.431ZM134.731 18.55H133.681C133.301 18.55 133.024 18.6167 132.851 18.75C132.677 18.8833 132.591 19.1133 132.591 19.44C132.591 19.7267 132.674 19.9567 132.841 20.13C133.014 20.3033 133.267 20.39 133.601 20.39H134.731V18.55ZM136.86 24.1C136.793 24.1 136.737 24.0767 136.69 24.03C136.65 23.99 136.63 23.9367 136.63 23.87V22.43C136.63 22.3633 136.65 22.31 136.69 22.27C136.737 22.2233 136.793 22.2 136.86 22.2H136.91C137.19 22.1933 137.4 21.96 137.54 21.5C137.687 21.04 137.76 20.31 137.76 19.31V18.03C137.76 17.9633 137.78 17.91 137.82 17.87C137.867 17.8233 137.923 17.8 137.99 17.8H141.18C141.247 17.8 141.3 17.8233 141.34 17.87C141.387 17.91 141.41 17.9633 141.41 18.03V22.18H141.88C141.947 22.18 142 22.2033 142.04 22.25C142.087 22.29 142.11 22.3433 142.11 22.41V23.87C142.11 23.9367 142.087 23.99 142.04 24.03C142 24.0767 141.947 24.1 141.88 24.1H141.41C141.343 24.1 141.287 24.0767 141.24 24.03C141.2 23.99 141.18 23.9367 141.18 23.87V23H137.56V23.87C137.56 23.9367 137.537 23.99 137.49 24.03C137.45 24.0767 137.397 24.1 137.33 24.1H136.86ZM140.48 22.18V18.6H138.67V19.42C138.67 20.7533 138.48 21.68 138.1 22.2L140.48 22.18ZM145.286 23.1C144.553 23.1 143.983 22.8933 143.576 22.48C143.176 22.0667 142.963 21.5167 142.936 20.83L142.926 20.4L142.936 19.97C142.963 19.29 143.179 18.7433 143.586 18.33C143.993 17.91 144.559 17.7 145.286 17.7C146.013 17.7 146.579 17.91 146.986 18.33C147.393 18.7433 147.609 19.29 147.636 19.97C147.643 20.0433 147.646 20.1867 147.646 20.4C147.646 20.6133 147.643 20.7567 147.636 20.83C147.609 21.5167 147.393 22.0667 146.986 22.48C146.586 22.8933 146.019 23.1 145.286 23.1ZM145.286 22.33C145.706 22.33 146.036 22.1967 146.276 21.93C146.523 21.6633 146.656 21.28 146.676 20.78C146.683 20.7133 146.686 20.5867 146.686 20.4C146.686 20.2133 146.683 20.0867 146.676 20.02C146.656 19.52 146.523 19.1367 146.276 18.87C146.036 18.6033 145.706 18.47 145.286 18.47C144.866 18.47 144.533 18.6033 144.286 18.87C144.039 19.1367 143.909 19.52 143.896 20.02L143.886 20.4L143.896 20.78C143.909 21.28 144.039 21.6633 144.286 21.93C144.533 22.1967 144.866 22.33 145.286 22.33ZM154.018 17.8C154.072 17.8 154.118 17.82 154.158 17.86C154.198 17.8933 154.218 17.9367 154.218 17.99V22.78C154.218 22.8467 154.198 22.9 154.158 22.94C154.118 22.98 154.068 23 154.008 23H153.518C153.452 23 153.398 22.98 153.358 22.94C153.318 22.9 153.298 22.8467 153.298 22.78V19.49L152.018 21.91C151.972 21.9967 151.925 22.0633 151.878 22.11C151.838 22.15 151.775 22.17 151.688 22.17H151.428C151.348 22.17 151.285 22.15 151.238 22.11C151.198 22.07 151.152 22.0033 151.098 21.91L149.828 19.55V22.78C149.828 22.8467 149.808 22.9 149.768 22.94C149.728 22.98 149.675 23 149.608 23H149.118C149.052 23 148.998 22.98 148.958 22.94C148.918 22.9 148.898 22.8467 148.898 22.78V17.99C148.898 17.9433 148.918 17.9 148.958 17.86C148.998 17.82 149.045 17.8 149.098 17.8H149.608C149.708 17.8 149.792 17.8533 149.858 17.96L151.558 21.14L153.268 17.96C153.322 17.8533 153.405 17.8 153.518 17.8H154.018ZM155.965 21.34C155.898 21.34 155.841 21.32 155.795 21.28C155.755 21.2333 155.735 21.1767 155.735 21.11V16.23C155.735 16.1633 155.755 16.11 155.795 16.07C155.841 16.0233 155.898 16 155.965 16H156.435C156.501 16 156.555 16.0233 156.595 16.07C156.641 16.11 156.665 16.1633 156.665 16.23V21.11C156.665 21.1767 156.641 21.2333 156.595 21.28C156.555 21.32 156.501 21.34 156.435 21.34H155.965ZM155.875 23C155.808 23 155.751 22.98 155.705 22.94C155.665 22.8933 155.645 22.8367 155.645 22.77V22.14C155.645 22.0733 155.665 22.0167 155.705 21.97C155.751 21.9233 155.808 21.9 155.875 21.9H156.515C156.581 21.9 156.635 21.9233 156.675 21.97C156.721 22.0167 156.745 22.0733 156.745 22.14V22.77C156.745 22.8367 156.721 22.8933 156.675 22.94C156.635 22.98 156.581 23 156.515 23H155.875Z" fill="#433232"/>
<defs>
<filter id="filter0_d" x="0" y="0" width="170" height="43" filterUnits="userSpaceOnUse" color-interpolation-filters="sRGB">
<feFlood flood-opacity="0" result="BackgroundImageFix"/>
<feColorMatrix in="SourceAlpha" type="matrix" values="0 0 0 0 0 0 0 0 0 0 0 0 0 0 0 0 0 0 127 0"/>
<feOffset dy="2"/>
<feGaussianBlur stdDeviation="2"/>
<feColorMatrix type="matrix" values="0 0 0 0 0 0 0 0 0 0 0 0 0 0 0 0 0 0 0.25 0"/>
<feBlend mode="normal" in2="BackgroundImageFix" result="effect1_dropShadow"/>
<feBlend mode="normal" in="SourceGraphic" in2="effect1_dropShadow" result="shape"/>
</filter>
</defs>
</svg>
