<svg width="142" height="144" viewBox="0 0 142 144" fill="none" xmlns="http://www.w3.org/2000/svg">
<path d="M77.601 44.4783H64.4541V66.4942H77.601V44.4783Z" fill="black" fill-opacity="0.11"/>
<path d="M64.7089 69.6665C64.72 69.7059 64.7335 69.7444 64.7454 69.7838C64.7851 69.9174 64.8287 70.0493 64.8764 70.1801C64.8969 70.2352 64.9184 70.2903 64.9399 70.3449C64.9871 70.4635 65.0376 70.5805 65.0914 70.6964C65.1146 70.7465 65.1367 70.7965 65.161 70.8458C65.2402 71.0061 65.3238 71.1647 65.4157 71.3185C66.6069 73.3135 68.7047 74.5043 71.0272 74.5043C71.3056 74.5043 71.5826 74.4851 71.8567 74.4477C73.7748 74.1859 75.5434 73.0316 76.6042 71.3045C76.6991 71.1498 76.7855 70.9915 76.8671 70.8306C76.8923 70.7819 76.9149 70.7321 76.9381 70.6835C76.9938 70.5673 77.0465 70.4503 77.0951 70.3319C77.1177 70.2771 77.1398 70.2222 77.1608 70.1671C77.2093 70.0403 77.2529 69.9117 77.2935 69.7824C77.3065 69.7402 77.3219 69.6983 77.334 69.6558C77.3837 69.4859 77.4265 69.3141 77.4624 69.1408C77.4643 69.1324 77.4654 69.1237 77.4671 69.1152H64.5801C64.582 69.1254 64.5834 69.1358 64.5853 69.1459C64.6201 69.3214 64.6609 69.4949 64.7089 69.6665Z" fill="black" fill-opacity="0.11"/>
<path d="M61.8818 44.4783H49.2493H48.5566V66.4942H61.8818V44.4783Z" fill="black" fill-opacity="0.11"/>
<path d="M96.1577 69.6569C96.1696 69.6983 96.1845 69.739 96.1974 69.7801C96.238 69.9103 96.2824 70.0394 96.331 70.1671C96.352 70.2225 96.374 70.2776 96.3967 70.3325C96.4455 70.4503 96.4977 70.567 96.5529 70.6824C96.5766 70.7321 96.5992 70.7819 96.6243 70.8314C96.7063 70.9915 96.7924 71.1501 96.8873 71.3045C98.0996 73.2783 100.237 74.5043 102.464 74.5043C104.692 74.5043 106.829 73.2783 108.041 71.3045C108.136 71.1501 108.223 70.9915 108.305 70.8306C108.33 70.7819 108.352 70.7321 108.376 70.6835C108.431 70.5676 108.484 70.4509 108.532 70.3325C108.555 70.2776 108.577 70.2222 108.598 70.1668C108.647 70.04 108.69 69.912 108.731 69.7826C108.744 69.7405 108.759 69.6985 108.771 69.6561C108.821 69.4856 108.864 69.3132 108.9 69.1394C108.902 69.1315 108.903 69.1234 108.904 69.1152H96.0244C96.0258 69.1231 96.0269 69.131 96.0286 69.1389C96.0647 69.313 96.108 69.4859 96.1577 69.6569Z" fill="black" fill-opacity="0.11"/>
<path d="M111.609 44.4783V66.4942H124.369L118.623 44.4783H111.609Z" fill="black" fill-opacity="0.11"/>
<path d="M111.743 69.1152C111.745 69.1231 111.746 69.131 111.747 69.1389C111.783 69.313 111.827 69.4856 111.876 69.6569C111.888 69.6983 111.903 69.739 111.916 69.7801C111.956 69.9103 112.001 70.0394 112.049 70.1671C112.07 70.2225 112.093 70.2776 112.115 70.3325C112.164 70.4503 112.216 70.567 112.271 70.6824C112.295 70.7321 112.318 70.7819 112.343 70.8314C112.425 70.9915 112.511 71.1501 112.606 71.3045C113.818 73.2783 115.955 74.5043 118.183 74.5043L118.318 74.5001H118.318C121.428 74.4337 124.031 72.1193 124.628 69.1152H111.743Z" fill="black" fill-opacity="0.11"/>
<path d="M43.763 96.9525H34.7617V104.764H43.763V96.9525Z" fill="black" fill-opacity="0.11"/>
<path d="M109.037 44.4783H95.8906V66.4942H109.037V44.4783Z" fill="black" fill-opacity="0.11"/>
<path d="M80.1719 66.4942H93.3188V44.4783H92.6259H80.1719V66.4942Z" fill="black" fill-opacity="0.11"/>
<path d="M80.4389 69.6569C80.4511 69.6983 80.466 69.739 80.4787 69.7801C80.5193 69.9103 80.5637 70.0394 80.6123 70.1671C80.6335 70.2225 80.6556 70.2776 80.6779 70.3325C80.7268 70.4503 80.7789 70.567 80.8341 70.6824C80.8581 70.7321 80.8808 70.7819 80.9059 70.8314C80.9875 70.9915 81.0736 71.1501 81.1686 71.3045C82.3808 73.2783 84.5178 74.5043 86.7458 74.5043C88.9736 74.5043 91.1106 73.2783 92.3228 71.3045C92.4178 71.1501 92.5041 70.9915 92.5861 70.8306C92.6109 70.7819 92.6336 70.7321 92.657 70.6835C92.7125 70.5676 92.7652 70.4509 92.8138 70.3325C92.8361 70.2776 92.8585 70.2222 92.8797 70.1668C92.9283 70.04 92.9719 69.912 93.0122 69.7826C93.0251 69.7405 93.0406 69.6985 93.0527 69.6561C93.1024 69.4856 93.1454 69.3132 93.1813 69.1394C93.183 69.1315 93.1838 69.1234 93.1857 69.1152H80.3057C80.3073 69.1231 80.3082 69.131 80.3098 69.1389C80.346 69.313 80.3896 69.4859 80.4389 69.6569Z" fill="black" fill-opacity="0.11"/>
<path d="M48.8245 69.6564C48.8367 69.6983 48.8521 69.7399 48.8648 69.7815C48.9054 69.9106 48.9496 70.0389 48.9981 70.1654C49.0194 70.2211 49.042 70.2768 49.0649 70.3319C49.1135 70.4489 49.1656 70.5645 49.2208 70.679C49.2451 70.7288 49.268 70.7791 49.2934 70.8286C49.3756 70.9881 49.4623 71.1459 49.5575 71.2994C50.8026 73.3061 52.9528 74.5043 55.3089 74.5043C57.5369 74.5043 59.6739 73.2783 60.8859 71.3045C60.9808 71.1501 61.0672 70.9917 61.1488 70.8314C61.174 70.7819 61.1969 70.7319 61.2209 70.6821C61.2761 70.567 61.3282 70.4506 61.3765 70.3328C61.3991 70.2776 61.4215 70.2225 61.4427 70.1668C61.491 70.04 61.5346 69.9117 61.5752 69.7826C61.5882 69.7405 61.6036 69.6985 61.6158 69.6561C61.6654 69.4856 61.7085 69.3132 61.7444 69.1394C61.746 69.1318 61.7468 69.1234 61.7488 69.1152H48.6904C48.6921 69.1234 48.6932 69.1318 48.6948 69.1397C48.7313 69.3135 48.7746 69.4859 48.8245 69.6564Z" fill="black" fill-opacity="0.11"/>
<path d="M63.2374 41.9062H119.592H122.076V34.0312H19.4219V41.9062H30.5778H63.2374Z" fill="black" fill-opacity="0.11"/>
<path d="M33.1044 69.6561C33.1171 69.6985 33.1323 69.7405 33.1453 69.7826C33.1855 69.9117 33.2294 70.04 33.2777 70.1668C33.2987 70.2225 33.321 70.2776 33.3439 70.3328C33.3922 70.4506 33.4444 70.567 33.4996 70.6821C33.5236 70.7321 33.5462 70.7819 33.5713 70.8314C33.6533 70.9915 33.7394 71.1501 33.8343 71.3045C34.8951 73.0316 36.6636 74.1859 38.5818 74.4477C38.8558 74.4851 39.1329 74.5043 39.4116 74.5043C41.7337 74.5043 43.8312 73.3135 45.0225 71.3191C45.0225 71.3188 45.0225 71.3188 45.0228 71.3185C45.0239 71.3166 45.0247 71.3149 45.0258 71.3129C45.1166 71.1608 45.1994 71.0041 45.2775 70.8458C45.3018 70.7965 45.3239 70.7462 45.347 70.6967C45.4008 70.5808 45.4516 70.4635 45.4988 70.3446C45.5203 70.29 45.5419 70.2352 45.562 70.1801C45.6097 70.0495 45.6531 69.9174 45.6931 69.7843C45.7049 69.7447 45.7185 69.7061 45.7298 69.6662C45.7775 69.4949 45.8186 69.3211 45.8531 69.1462C45.8551 69.1358 45.8564 69.1256 45.8584 69.1152H32.9717C32.9733 69.1234 32.9744 69.1318 32.9761 69.1394C33.012 69.3132 33.0547 69.4856 33.1044 69.6561Z" fill="black" fill-opacity="0.11"/>
<path d="M45.9848 44.4783H32.8379V66.4942H45.9848V44.4783Z" fill="black" fill-opacity="0.11"/>
<path d="M30.267 44.4783H23.4317L17.6855 66.4942H30.267V44.4783Z" fill="black" fill-opacity="0.11"/>
<path d="M23.6932 74.5043C26.0156 74.5043 28.1134 73.3135 29.3044 71.3185C29.3966 71.1647 29.4802 71.0064 29.5591 70.8458C29.5836 70.7965 29.6057 70.7462 29.6289 70.6964C29.6824 70.5805 29.7332 70.4635 29.7804 70.3449C29.8019 70.2903 29.8234 70.2352 29.8436 70.1801C29.8916 70.0493 29.9349 69.9171 29.9749 69.7838C29.9865 69.7444 30.0003 69.7059 30.0114 69.6665C30.0594 69.4949 30.1002 69.3211 30.1347 69.1459C30.1367 69.1358 30.138 69.1254 30.14 69.1152H17.4219C17.9776 72.0293 20.3489 74.2911 23.2737 74.4882C23.4125 74.4978 23.5522 74.5043 23.6932 74.5043Z" fill="black" fill-opacity="0.11"/>
<path d="M106.771 86.4163H86.1973V115.249H106.771V86.4163Z" fill="black" fill-opacity="0.11"/>
<path d="M108.058 117.87H84.9118H23.1896H19.332V125.733H122.203V117.87H118.345H108.058Z" fill="black" fill-opacity="0.11"/>
<path d="M46.8089 73.3106C46.7579 73.3826 46.703 73.4504 46.6503 73.5207C46.6028 73.5834 46.5567 73.6473 46.5082 73.7083C46.4314 73.805 46.3514 73.8979 46.2711 73.9907C46.2275 74.0413 46.1853 74.0936 46.1409 74.1434C46.0288 74.2674 45.9135 74.3872 45.7957 74.5045C45.7799 74.52 45.7656 74.5366 45.7498 74.552C45.6155 74.6837 45.4772 74.8102 45.3356 74.9329C45.2923 74.9705 45.2471 75.0049 45.2032 75.0417C45.1033 75.1247 45.0031 75.2074 44.9002 75.2861C44.8436 75.3291 44.7848 75.3691 44.7274 75.4107C44.6339 75.4782 44.5406 75.546 44.4451 75.6098C44.3814 75.6526 44.316 75.6925 44.2514 75.7333C44.1587 75.7918 44.066 75.8497 43.9713 75.9046C43.9026 75.9445 43.8331 75.9819 43.7635 76.0199C43.6697 76.0714 43.5756 76.1214 43.4801 76.1695C43.4078 76.2055 43.3353 76.2398 43.2621 76.2739C43.1661 76.3186 43.0698 76.3619 42.9724 76.4035C42.8976 76.435 42.8223 76.466 42.7466 76.4955C42.6481 76.5343 42.5488 76.5711 42.4489 76.6063C42.3725 76.6333 42.2952 76.6597 42.2179 76.6848C42.1161 76.7174 42.0134 76.7478 41.9105 76.7767C41.8327 76.7987 41.7552 76.8209 41.6768 76.8411C41.5708 76.8681 41.464 76.8918 41.3567 76.9148C41.2794 76.9317 41.2024 76.9491 41.1243 76.964C41.012 76.9851 40.898 77.0023 40.7846 77.0192C40.7101 77.0304 40.6367 77.0434 40.5619 77.0526C40.4353 77.0687 40.3075 77.0791 40.1792 77.0898C40.1163 77.0951 40.0542 77.1027 39.9907 77.1066C39.7989 77.1187 39.6058 77.1252 39.4115 77.1252C39.2244 77.1252 39.0378 77.1185 38.8524 77.1064C38.7903 77.1021 38.7293 77.0943 38.6675 77.0889C38.5436 77.0782 38.42 77.0673 38.2969 77.0512C38.2243 77.0417 38.1526 77.0284 38.0803 77.0172C37.9694 76.9998 37.8582 76.9826 37.7478 76.961C37.6716 76.946 37.596 76.9283 37.5204 76.9112C37.415 76.8875 37.3098 76.8636 37.2055 76.8364C37.1285 76.8161 37.0518 76.7936 36.9754 76.7714C36.8738 76.7421 36.7728 76.7115 36.6718 76.6783C36.5954 76.653 36.519 76.6257 36.4428 76.5987C36.3443 76.5633 36.2463 76.5261 36.1489 76.4873C36.0736 76.4572 35.9982 76.4257 35.9235 76.3937C35.8271 76.3523 35.7317 76.3087 35.6367 76.264C35.5633 76.2294 35.4905 76.1945 35.4182 76.158C35.323 76.1099 35.2292 76.0595 35.1362 76.0084C35.0663 75.9701 34.9965 75.9321 34.9278 75.8922C34.8332 75.8371 34.7404 75.7789 34.6477 75.7206C34.5826 75.6796 34.5169 75.6394 34.4529 75.5966C34.3574 75.533 34.2641 75.4661 34.1712 75.3989C34.1127 75.357 34.053 75.3162 33.9956 75.2726C33.893 75.195 33.7937 75.1134 33.694 75.0316C33.6488 74.9944 33.6019 74.959 33.5572 74.9208C33.4142 74.7984 33.2746 74.6724 33.1385 74.5414C33.1314 74.534 33.1242 74.5262 33.117 74.5191C32.9892 74.3951 32.8645 74.2671 32.7434 74.1355C32.7006 74.0888 32.66 74.0393 32.6181 73.9918C32.5348 73.8973 32.4514 73.8028 32.3714 73.7046C32.3237 73.6461 32.2787 73.5848 32.232 73.5246C32.1768 73.4532 32.1197 73.3837 32.0662 73.3106H31.0904C31.0256 73.4017 30.9571 73.4895 30.8893 73.5778C30.8611 73.6146 30.8343 73.6526 30.8059 73.6889C30.6917 73.8335 30.5733 73.9741 30.4519 74.1105C30.4243 74.1411 30.3953 74.1701 30.3671 74.2005C30.2714 74.3048 30.1745 74.4075 30.0744 74.5068C30.0294 74.5515 29.983 74.5945 29.9372 74.6381C29.8508 74.7205 29.7631 74.8015 29.6737 74.8803C29.6226 74.925 29.5713 74.9689 29.5194 75.0127C29.43 75.0881 29.3392 75.1609 29.2471 75.2327C29.1952 75.2729 29.1439 75.3131 29.0914 75.3522C28.9893 75.4281 28.885 75.5007 28.7799 75.5719C28.736 75.6017 28.6929 75.6332 28.6482 75.6621C28.4981 75.7603 28.3455 75.8542 28.1899 75.9428C28.1703 75.9541 28.1499 75.9639 28.13 75.9749C27.9934 76.0514 27.8552 76.1245 27.7147 76.1937C27.6606 76.2207 27.6054 76.2452 27.5502 76.2705C27.4418 76.3214 27.3328 76.3706 27.2221 76.417C27.1595 76.4434 27.0968 76.4682 27.0336 76.4932C26.9266 76.5351 26.8192 76.5751 26.7105 76.6133C26.6465 76.6355 26.5825 76.658 26.5176 76.6789C26.4028 76.7163 26.2866 76.7503 26.1699 76.7829C26.1114 76.7995 26.0535 76.817 25.9947 76.8321C25.8363 76.8732 25.6765 76.91 25.5154 76.9427C25.498 76.9463 25.4811 76.9508 25.4638 76.9542C25.2855 76.9891 25.1056 77.0178 24.9243 77.0422C24.8671 77.0498 24.8092 77.0549 24.7515 77.0614C24.6591 77.072 24.5669 77.0844 24.4736 77.0923V115.248H83.6243V85.1057C83.6243 84.382 84.2 83.7953 84.91 83.7953H108.056C108.766 83.7953 109.342 84.382 109.342 85.1057V115.249H117.057V77.0515C117.051 77.0507 117.045 77.0493 117.039 77.0487C117.009 77.0445 116.978 77.0386 116.948 77.0341C116.804 77.013 116.66 76.9891 116.517 76.9607C116.46 76.9497 116.403 76.9368 116.346 76.9244C116.228 76.8988 116.11 76.8709 115.992 76.8403C115.934 76.8251 115.876 76.8099 115.818 76.7936C115.694 76.7585 115.57 76.7202 115.447 76.68C115.402 76.6648 115.356 76.651 115.31 76.6355C115.144 76.5776 114.978 76.5157 114.815 76.4482C114.791 76.4384 114.769 76.4271 114.745 76.4173C114.606 76.3585 114.468 76.2961 114.332 76.2305C114.281 76.2061 114.231 76.1796 114.181 76.1543C114.071 76.0986 113.962 76.041 113.854 75.9811C113.802 75.9518 113.749 75.9226 113.698 75.8925C113.586 75.8275 113.475 75.7592 113.366 75.6891C113.325 75.6627 113.283 75.6374 113.243 75.6107C113.095 75.5122 112.949 75.4104 112.806 75.3038C112.787 75.2895 112.768 75.274 112.749 75.2597C112.627 75.1663 112.506 75.0701 112.388 74.9708C112.344 74.9337 112.301 74.8952 112.257 74.8578C112.164 74.7765 112.072 74.6932 111.982 74.608C111.937 74.5658 111.893 74.5228 111.848 74.4798C111.756 74.3892 111.667 74.2964 111.578 74.2019C111.542 74.1639 111.506 74.1268 111.471 74.0885C111.35 73.9552 111.233 73.8191 111.119 73.6785C111.103 73.6591 111.089 73.6383 111.073 73.6186C110.993 73.5176 110.913 73.4155 110.837 73.3109H109.808C109.755 73.3849 109.697 73.4549 109.641 73.5272C109.595 73.5862 109.551 73.6467 109.503 73.7049C109.423 73.8036 109.339 73.8984 109.256 73.9935C109.214 74.0407 109.174 74.0897 109.131 74.1358C109.01 74.2688 108.884 74.3974 108.755 74.5225C108.749 74.5284 108.743 74.5354 108.737 74.5416C108.601 74.6727 108.461 74.799 108.318 74.9213C108.273 74.9593 108.227 74.9944 108.182 75.0316C108.082 75.1137 107.982 75.1953 107.88 75.2729C107.822 75.3165 107.762 75.3573 107.704 75.3995C107.611 75.4664 107.517 75.5336 107.422 75.5972C107.358 75.6396 107.292 75.6799 107.227 75.7209C107.134 75.7791 107.042 75.8374 106.947 75.8925C106.879 75.9327 106.809 75.9701 106.739 76.0084C106.645 76.0598 106.551 76.1102 106.456 76.1585C106.384 76.1948 106.312 76.2294 106.239 76.264C106.143 76.309 106.048 76.3526 105.951 76.3942C105.876 76.4263 105.802 76.4575 105.726 76.4873C105.629 76.5264 105.53 76.5635 105.431 76.599C105.355 76.6263 105.279 76.653 105.203 76.6783C105.102 76.7115 105.001 76.7421 104.899 76.7714C104.823 76.7936 104.746 76.8161 104.669 76.8364C104.565 76.8639 104.46 76.8875 104.354 76.9112C104.279 76.9283 104.203 76.946 104.127 76.961C104.017 76.9826 103.905 77 103.794 77.0175C103.722 77.0287 103.65 77.0417 103.578 77.0512C103.455 77.0673 103.331 77.0782 103.207 77.0889C103.145 77.0943 103.084 77.1021 103.022 77.1064C102.837 77.1185 102.65 77.1252 102.463 77.1252C102.277 77.1252 102.09 77.1185 101.904 77.1064C101.842 77.1021 101.781 77.0943 101.72 77.0889C101.596 77.0782 101.472 77.0673 101.349 77.0512C101.276 77.0417 101.205 77.0287 101.133 77.0175C101.021 76.9998 100.91 76.9826 100.8 76.961C100.723 76.946 100.648 76.9283 100.573 76.9112C100.467 76.8875 100.362 76.8636 100.257 76.8361C100.181 76.8161 100.104 76.7936 100.028 76.7717C99.9259 76.7421 99.8247 76.7115 99.7234 76.678C99.6472 76.653 99.5713 76.626 99.4954 76.599C99.3967 76.5633 99.2981 76.5261 99.2002 76.4873C99.1251 76.4575 99.0506 76.4263 98.9758 76.3942C98.879 76.3526 98.7832 76.3087 98.6875 76.2637C98.6149 76.2294 98.5423 76.1948 98.4706 76.1585C98.3751 76.1102 98.2807 76.0595 98.1869 76.0081C98.1176 75.9701 98.0481 75.9324 97.9799 75.8925C97.8847 75.8374 97.7917 75.7791 97.6984 75.7204C97.6339 75.6793 97.5685 75.6396 97.505 75.5972C97.409 75.5333 97.3154 75.4658 97.2221 75.3986C97.1639 75.3567 97.1049 75.3162 97.0472 75.2729C96.9448 75.1953 96.8452 75.1137 96.7453 75.0316C96.7 74.9944 96.6534 74.9593 96.609 74.921C96.466 74.7987 96.3264 74.6724 96.1904 74.5414C96.184 74.5355 96.1779 74.5284 96.1716 74.5225C96.0427 74.3974 95.9172 74.2685 95.7955 74.1358C95.7527 74.0894 95.7124 74.0402 95.6707 73.9929C95.5871 73.8981 95.5038 73.8034 95.4235 73.7049C95.3757 73.6464 95.3305 73.5851 95.2841 73.5249C95.2289 73.4535 95.1715 73.384 95.1183 73.3109H94.0895C94.0357 73.3849 93.9781 73.4549 93.922 73.5272C93.8762 73.5862 93.8318 73.6467 93.7846 73.7049C93.7043 73.8036 93.6207 73.8984 93.5368 73.9935C93.4954 74.0407 93.4551 74.0897 93.4129 74.1358C93.2909 74.2688 93.1654 74.3974 93.0365 74.5225C93.0304 74.5284 93.0241 74.5354 93.018 74.5416C92.8822 74.6727 92.7423 74.799 92.5988 74.9213C92.5547 74.9593 92.508 74.9944 92.4631 75.0316C92.3634 75.1137 92.2636 75.1953 92.1609 75.2729C92.1035 75.3165 92.0439 75.3573 91.9851 75.3995C91.8919 75.4664 91.7986 75.5336 91.7034 75.5972C91.6396 75.6396 91.574 75.6799 91.5091 75.7209C91.4161 75.7791 91.3234 75.8374 91.2287 75.8925C91.16 75.9327 91.0902 75.9701 91.0209 76.0084C90.9268 76.0598 90.833 76.1102 90.7381 76.1585C90.6658 76.1948 90.5935 76.2294 90.5206 76.264C90.4249 76.309 90.3291 76.3526 90.2323 76.3942C90.1578 76.4263 90.0833 76.4575 90.0079 76.4873C89.9102 76.5264 89.812 76.5635 89.7129 76.599C89.637 76.6263 89.5611 76.653 89.4842 76.6783C89.384 76.7115 89.2827 76.7421 89.1809 76.7714C89.1045 76.7936 89.0277 76.8161 88.9508 76.8364C88.8464 76.8639 88.7413 76.8875 88.6356 76.9112C88.5603 76.9283 88.4847 76.946 88.4088 76.961C88.2984 76.9826 88.1869 77 88.0754 77.0175C88.0034 77.0287 87.9317 77.0417 87.8596 77.0512C87.7366 77.0673 87.6124 77.0782 87.4885 77.0889C87.4269 77.0943 87.3657 77.1021 87.3039 77.1064C87.1181 77.1185 86.9316 77.1252 86.7451 77.1252C86.558 77.1252 86.3714 77.1185 86.186 77.1064C86.1242 77.1021 86.0629 77.0943 86.0014 77.0889C85.8775 77.0782 85.7536 77.0673 85.6302 77.0512C85.5579 77.0417 85.4864 77.0287 85.4144 77.0175C85.3029 76.9998 85.1914 76.9826 85.0811 76.961C85.0052 76.946 84.9298 76.9283 84.8545 76.9112C84.7485 76.8875 84.6434 76.8636 84.5388 76.8361C84.4621 76.8161 84.3859 76.7936 84.3095 76.7717C84.2077 76.7421 84.1061 76.7115 84.0051 76.678C83.9287 76.653 83.8528 76.626 83.7772 76.599C83.6781 76.5633 83.5796 76.5261 83.4819 76.4873C83.4069 76.4575 83.3321 76.4263 83.2576 76.3942C83.161 76.3526 83.0652 76.3087 82.9692 76.2637C82.8966 76.2294 82.8243 76.1948 82.7523 76.1585C82.6568 76.1102 82.5624 76.0595 82.4686 76.0081C82.3996 75.9701 82.3301 75.9324 82.2617 75.8925C82.1667 75.8374 82.0735 75.7791 81.9802 75.7204C81.9159 75.6793 81.8505 75.6396 81.787 75.5972C81.691 75.5333 81.5972 75.4658 81.5039 75.3986C81.4457 75.3567 81.3866 75.3162 81.3292 75.2729C81.2268 75.1953 81.1272 75.1137 81.0273 75.0316C80.9821 74.9944 80.9352 74.9593 80.891 74.921C80.7478 74.7987 80.6082 74.6724 80.4721 74.5414C80.466 74.5355 80.4597 74.5284 80.4533 74.5225C80.3245 74.3974 80.1992 74.2685 80.0772 74.1358C80.0347 74.0894 79.9942 74.0402 79.9528 73.9929C79.8689 73.8981 79.7855 73.8034 79.7055 73.7049C79.6578 73.6464 79.6125 73.5851 79.5662 73.5249C79.5107 73.4535 79.4536 73.384 79.4 73.3109H78.3713C78.3183 73.384 78.2609 73.4535 78.2054 73.5249C78.1591 73.5851 78.1138 73.6464 78.0661 73.7049C77.9861 73.8036 77.9024 73.8984 77.8188 73.9929C77.7772 74.0402 77.7369 74.0894 77.6941 74.1358C77.5724 74.2685 77.4468 74.3974 77.318 74.5225C77.3116 74.5284 77.3056 74.5355 77.2992 74.5414C77.1634 74.6727 77.0235 74.7987 76.8806 74.921C76.8362 74.959 76.7898 74.9939 76.7448 75.031C76.6452 75.1134 76.545 75.1953 76.4421 75.2729C76.3847 75.3162 76.3256 75.3567 76.2674 75.3986C76.1739 75.4658 76.0801 75.5333 75.9843 75.5972C75.9211 75.6396 75.8554 75.6796 75.7911 75.7204C75.6979 75.7791 75.6046 75.8374 75.5097 75.8925C75.4415 75.9327 75.3717 75.9701 75.3027 76.0081C75.2089 76.0598 75.1142 76.1102 75.019 76.1585C74.947 76.1948 74.8747 76.2294 74.8021 76.2637C74.7064 76.3087 74.6106 76.3523 74.5137 76.3942C74.439 76.4263 74.3645 76.4575 74.2894 76.4873C74.1914 76.5264 74.0929 76.5635 73.9941 76.599C73.9182 76.6263 73.8424 76.653 73.7659 76.678C73.6652 76.7115 73.5636 76.7421 73.4615 76.7717C73.3854 76.7936 73.3089 76.8161 73.2322 76.8361C73.1276 76.8636 73.0222 76.8878 72.9168 76.9112C72.8412 76.9283 72.7656 76.946 72.69 76.961C72.5796 76.9826 72.4681 77 72.3566 77.0175C72.2846 77.0287 72.2129 77.0417 72.1408 77.0512C72.0178 77.0673 71.8938 77.0782 71.7697 77.0889C71.7081 77.0943 71.6472 77.1021 71.5851 77.1064C71.3996 77.1185 71.2128 77.1252 71.0263 77.1252C70.8317 77.1252 70.6391 77.1187 70.447 77.1066C70.3838 77.1027 70.3215 77.0951 70.2583 77.0898C70.1302 77.0791 70.0025 77.0687 69.8755 77.0526C69.8008 77.0434 69.7271 77.0304 69.6528 77.0192C69.5394 77.002 69.4257 76.9851 69.3137 76.964C69.2353 76.9491 69.1581 76.9317 69.08 76.9148C68.9732 76.8915 68.8669 76.8681 68.7612 76.8414C68.6826 76.8212 68.6045 76.799 68.5261 76.7767C68.4237 76.7475 68.3216 76.7179 68.2204 76.6853C68.1423 76.66 68.065 76.6333 67.9875 76.6063C67.8884 76.5711 67.7896 76.5349 67.6919 76.4963C67.6158 76.4665 67.5399 76.4353 67.4645 76.4035C67.3674 76.3625 67.2716 76.3191 67.1764 76.2747C67.1028 76.2404 67.0296 76.2058 66.9571 76.1695C66.8619 76.1217 66.768 76.0716 66.675 76.0207C66.6052 75.9825 66.5349 75.9445 66.4659 75.9046C66.3715 75.85 66.279 75.7921 66.1869 75.7339C66.122 75.6928 66.0564 75.6529 65.9923 75.6101C65.8969 75.5463 65.8039 75.479 65.7109 75.4118C65.6529 75.3699 65.5939 75.3294 65.537 75.2861C65.4344 75.2079 65.3347 75.1252 65.2351 75.0425C65.191 75.0057 65.1452 74.9708 65.1018 74.9331C64.96 74.8105 64.8215 74.684 64.6871 74.5523C64.6733 74.5385 64.6606 74.5239 64.6468 74.5104C64.5268 74.3914 64.4097 74.2697 64.2961 74.1434C64.2527 74.0953 64.2119 74.0441 64.1694 73.9952C64.088 73.9007 64.0063 73.8065 63.9285 73.708C63.8807 73.6484 63.836 73.5859 63.7897 73.5249C63.7361 73.4535 63.6801 73.3843 63.628 73.3112H62.6522C62.5992 73.3843 62.5418 73.4538 62.4864 73.5252C62.44 73.5854 62.395 73.6467 62.347 73.7052C62.2673 73.8036 62.1839 73.8981 62.1003 73.9924C62.0583 74.0399 62.0181 74.0894 61.9753 74.1361C61.8544 74.268 61.7294 74.3957 61.6017 74.5197C61.5942 74.5267 61.5873 74.5346 61.5799 74.5419C61.4444 74.673 61.3045 74.799 61.1615 74.921C61.1165 74.9596 61.0696 74.9953 61.0238 75.0327C60.9247 75.1143 60.8251 75.1955 60.723 75.2729C60.6653 75.3165 60.606 75.3573 60.5472 75.3992C60.454 75.4664 60.361 75.5336 60.2655 75.5969C60.2012 75.6396 60.1355 75.6799 60.0704 75.7209C59.9777 75.7794 59.885 75.8374 59.7906 75.8922C59.7219 75.9327 59.6521 75.9704 59.582 76.0086C59.4887 76.0601 59.3949 76.1102 59.2999 76.1583C59.2276 76.1948 59.1551 76.2297 59.0817 76.2643C58.9865 76.309 58.8913 76.3523 58.7947 76.3939C58.7199 76.426 58.6448 76.4575 58.5692 76.4876C58.4718 76.5264 58.3741 76.5635 58.2756 76.599C58.1994 76.6263 58.123 76.6533 58.0463 76.6786C57.9458 76.7118 57.8448 76.7424 57.743 76.7717C57.6666 76.7939 57.5899 76.8164 57.5129 76.8366C57.4086 76.8639 57.3034 76.8878 57.198 76.9115C57.1224 76.9286 57.0468 76.9463 56.9706 76.9612C56.8602 76.9829 56.749 77.0003 56.6381 77.0175C56.5658 77.0287 56.494 77.042 56.4215 77.0515C56.2987 77.0675 56.1745 77.0785 56.0509 77.0892C55.9891 77.0945 55.9281 77.1024 55.866 77.1066C55.6803 77.1187 55.4937 77.1255 55.3069 77.1255C55.1115 77.1255 54.9173 77.119 54.7244 77.1072C54.6601 77.103 54.5966 77.0954 54.5329 77.09C54.4043 77.0794 54.2762 77.069 54.149 77.0532C54.0734 77.0436 53.9983 77.0307 53.923 77.0197C53.809 77.0026 53.6951 76.986 53.5819 76.9649C53.5027 76.95 53.4246 76.9323 53.346 76.9154C53.2384 76.8923 53.1313 76.8693 53.0248 76.8423C52.9445 76.8223 52.8653 76.7998 52.7858 76.7776C52.6829 76.7486 52.5802 76.7194 52.4784 76.687C52.3989 76.6617 52.3205 76.6347 52.2419 76.6074C52.1417 76.5728 52.0421 76.5365 51.9436 76.4983C51.8661 76.4685 51.7888 76.4373 51.7121 76.4052C51.6144 76.3641 51.5178 76.3217 51.4218 76.2778C51.3464 76.2429 51.2714 76.208 51.1971 76.1715C51.1017 76.1245 51.0076 76.075 50.9143 76.025C50.842 75.9864 50.77 75.9482 50.6988 75.9074C50.6047 75.8537 50.5122 75.7969 50.4201 75.7398C50.3522 75.6981 50.284 75.6568 50.2172 75.6132C50.1231 75.5513 50.031 75.4861 49.9391 75.4208C49.8773 75.3772 49.8149 75.3348 49.7542 75.2898C49.656 75.2161 49.5602 75.1387 49.4644 75.0611C49.4131 75.0198 49.3607 74.9801 49.3102 74.9376C49.1866 74.833 49.066 74.7236 48.9473 74.6122C48.9277 74.5939 48.9067 74.5768 48.8871 74.558C48.7497 74.4266 48.6164 74.2908 48.4867 74.1504C48.4467 74.1074 48.4095 74.0615 48.37 74.0174C48.282 73.9184 48.194 73.8194 48.1098 73.7164C48.0618 73.6579 48.0168 73.5966 47.9699 73.5367C47.9114 73.4614 47.8509 73.3882 47.7944 73.3109H46.8089V73.3106ZM56.6215 83.8983C57.3316 83.8983 57.9075 84.485 57.9075 85.2089V95.6419V106.075C57.9075 106.799 57.3316 107.385 56.6215 107.385H45.0486H33.4758C32.7657 107.385 32.1898 106.799 32.1898 106.075V95.6419V85.2089C32.1898 84.485 32.7657 83.8983 33.4758 83.8983H45.0486H56.6215Z" fill="black" fill-opacity="0.11"/>
<path d="M55.336 96.9525H46.335V104.764H55.336V96.9525Z" fill="black" fill-opacity="0.11"/>
<path d="M43.763 86.5193H34.7617V94.3313H43.763V86.5193Z" fill="black" fill-opacity="0.11"/>
<path d="M55.336 86.5193H46.335V94.3313H55.336V86.5193Z" fill="black" fill-opacity="0.11"/>
</svg>
